<?xml version="1.0" encoding="utf-8" standalone="no"?>
<!DOCTYPE svg PUBLIC "-//W3C//DTD SVG 1.1//EN"
  "http://www.w3.org/Graphics/SVG/1.1/DTD/svg11.dtd">
<svg xmlns:xlink="http://www.w3.org/1999/xlink" width="432.30875pt" height="314.7395pt" viewBox="0 0 432.30875 314.7395" xmlns="http://www.w3.org/2000/svg" version="1.1">
 <metadata>
  <rdf:RDF xmlns:dc="http://purl.org/dc/elements/1.1/" xmlns:cc="http://creativecommons.org/ns#" xmlns:rdf="http://www.w3.org/1999/02/22-rdf-syntax-ns#">
   <cc:Work>
    <dc:type rdf:resource="http://purl.org/dc/dcmitype/StillImage"/>
    <dc:date>2022-08-03T13:03:32.618211</dc:date>
    <dc:format>image/svg+xml</dc:format>
    <dc:creator>
     <cc:Agent>
      <dc:title>Matplotlib v3.5.2, https://matplotlib.org/</dc:title>
     </cc:Agent>
    </dc:creator>
   </cc:Work>
  </rdf:RDF>
 </metadata>
 <defs>
  <style type="text/css">*{stroke-linejoin: round; stroke-linecap: butt}</style>
 </defs>
 <g id="figure_1">
  <g id="patch_1">
   <path d="M 0 314.7395 
L 432.30875 314.7395 
L 432.30875 0 
L 0 0 
z
" style="fill: #ffffff"/>
  </g>
  <g id="axes_1">
   <g id="patch_2">
    <path d="M 67.98875 273.312 
L 425.10875 273.312 
L 425.10875 7.2 
L 67.98875 7.2 
z
" style="fill: #ffffff"/>
   </g>
   <g id="matplotlib.axis_1">
    <g id="xtick_1">
     <g id="line2d_1">
      <path d="M 84.133423 273.312 
L 84.133423 7.2 
" clip-path="url(#p3e53ee52c1)" style="fill: none; stroke-dasharray: 3.7,1.6; stroke-dashoffset: 0; stroke: #b0b0b0"/>
     </g>
     <g id="line2d_2">
      <defs>
       <path id="m203b51309d" d="M 0 0 
L 0 3.5 
" style="stroke: #000000; stroke-width: 0.8"/>
      </defs>
      <g>
       <use xlink:href="#m203b51309d" x="84.133423" y="273.312" style="stroke: #000000; stroke-width: 0.8"/>
      </g>
     </g>
     <g id="text_1">
      <!-- 0 -->
      <g transform="translate(80.315923 289.430125)scale(0.12 -0.12)">
       <defs>
        <path id="DejaVuSans-30" d="M 2034 4250 
Q 1547 4250 1301 3770 
Q 1056 3291 1056 2328 
Q 1056 1369 1301 889 
Q 1547 409 2034 409 
Q 2525 409 2770 889 
Q 3016 1369 3016 2328 
Q 3016 3291 2770 3770 
Q 2525 4250 2034 4250 
z
M 2034 4750 
Q 2819 4750 3233 4129 
Q 3647 3509 3647 2328 
Q 3647 1150 3233 529 
Q 2819 -91 2034 -91 
Q 1250 -91 836 529 
Q 422 1150 422 2328 
Q 422 3509 836 4129 
Q 1250 4750 2034 4750 
z
" transform="scale(0.015625)"/>
       </defs>
       <use xlink:href="#DejaVuSans-30"/>
      </g>
     </g>
    </g>
    <g id="xtick_2">
     <g id="line2d_3">
      <path d="M 128.160348 273.312 
L 128.160348 7.2 
" clip-path="url(#p3e53ee52c1)" style="fill: none; stroke-dasharray: 3.7,1.6; stroke-dashoffset: 0; stroke: #b0b0b0"/>
     </g>
     <g id="line2d_4">
      <g>
       <use xlink:href="#m203b51309d" x="128.160348" y="273.312" style="stroke: #000000; stroke-width: 0.8"/>
      </g>
     </g>
     <g id="text_2">
      <!-- 500 -->
      <g transform="translate(116.707848 289.430125)scale(0.12 -0.12)">
       <defs>
        <path id="DejaVuSans-35" d="M 691 4666 
L 3169 4666 
L 3169 4134 
L 1269 4134 
L 1269 2991 
Q 1406 3038 1543 3061 
Q 1681 3084 1819 3084 
Q 2600 3084 3056 2656 
Q 3513 2228 3513 1497 
Q 3513 744 3044 326 
Q 2575 -91 1722 -91 
Q 1428 -91 1123 -41 
Q 819 9 494 109 
L 494 744 
Q 775 591 1075 516 
Q 1375 441 1709 441 
Q 2250 441 2565 725 
Q 2881 1009 2881 1497 
Q 2881 1984 2565 2268 
Q 2250 2553 1709 2553 
Q 1456 2553 1204 2497 
Q 953 2441 691 2322 
L 691 4666 
z
" transform="scale(0.015625)"/>
       </defs>
       <use xlink:href="#DejaVuSans-35"/>
       <use xlink:href="#DejaVuSans-30" x="63.623047"/>
       <use xlink:href="#DejaVuSans-30" x="127.246094"/>
      </g>
     </g>
    </g>
    <g id="xtick_3">
     <g id="line2d_5">
      <path d="M 172.187274 273.312 
L 172.187274 7.2 
" clip-path="url(#p3e53ee52c1)" style="fill: none; stroke-dasharray: 3.7,1.6; stroke-dashoffset: 0; stroke: #b0b0b0"/>
     </g>
     <g id="line2d_6">
      <g>
       <use xlink:href="#m203b51309d" x="172.187274" y="273.312" style="stroke: #000000; stroke-width: 0.8"/>
      </g>
     </g>
     <g id="text_3">
      <!-- 1000 -->
      <g transform="translate(156.917274 289.430125)scale(0.12 -0.12)">
       <defs>
        <path id="DejaVuSans-31" d="M 794 531 
L 1825 531 
L 1825 4091 
L 703 3866 
L 703 4441 
L 1819 4666 
L 2450 4666 
L 2450 531 
L 3481 531 
L 3481 0 
L 794 0 
L 794 531 
z
" transform="scale(0.015625)"/>
       </defs>
       <use xlink:href="#DejaVuSans-31"/>
       <use xlink:href="#DejaVuSans-30" x="63.623047"/>
       <use xlink:href="#DejaVuSans-30" x="127.246094"/>
       <use xlink:href="#DejaVuSans-30" x="190.869141"/>
      </g>
     </g>
    </g>
    <g id="xtick_4">
     <g id="line2d_7">
      <path d="M 216.214199 273.312 
L 216.214199 7.2 
" clip-path="url(#p3e53ee52c1)" style="fill: none; stroke-dasharray: 3.7,1.6; stroke-dashoffset: 0; stroke: #b0b0b0"/>
     </g>
     <g id="line2d_8">
      <g>
       <use xlink:href="#m203b51309d" x="216.214199" y="273.312" style="stroke: #000000; stroke-width: 0.8"/>
      </g>
     </g>
     <g id="text_4">
      <!-- 1500 -->
      <g transform="translate(200.944199 289.430125)scale(0.12 -0.12)">
       <use xlink:href="#DejaVuSans-31"/>
       <use xlink:href="#DejaVuSans-35" x="63.623047"/>
       <use xlink:href="#DejaVuSans-30" x="127.246094"/>
       <use xlink:href="#DejaVuSans-30" x="190.869141"/>
      </g>
     </g>
    </g>
    <g id="xtick_5">
     <g id="line2d_9">
      <path d="M 260.241124 273.312 
L 260.241124 7.2 
" clip-path="url(#p3e53ee52c1)" style="fill: none; stroke-dasharray: 3.7,1.6; stroke-dashoffset: 0; stroke: #b0b0b0"/>
     </g>
     <g id="line2d_10">
      <g>
       <use xlink:href="#m203b51309d" x="260.241124" y="273.312" style="stroke: #000000; stroke-width: 0.8"/>
      </g>
     </g>
     <g id="text_5">
      <!-- 2000 -->
      <g transform="translate(244.971124 289.430125)scale(0.12 -0.12)">
       <defs>
        <path id="DejaVuSans-32" d="M 1228 531 
L 3431 531 
L 3431 0 
L 469 0 
L 469 531 
Q 828 903 1448 1529 
Q 2069 2156 2228 2338 
Q 2531 2678 2651 2914 
Q 2772 3150 2772 3378 
Q 2772 3750 2511 3984 
Q 2250 4219 1831 4219 
Q 1534 4219 1204 4116 
Q 875 4013 500 3803 
L 500 4441 
Q 881 4594 1212 4672 
Q 1544 4750 1819 4750 
Q 2544 4750 2975 4387 
Q 3406 4025 3406 3419 
Q 3406 3131 3298 2873 
Q 3191 2616 2906 2266 
Q 2828 2175 2409 1742 
Q 1991 1309 1228 531 
z
" transform="scale(0.015625)"/>
       </defs>
       <use xlink:href="#DejaVuSans-32"/>
       <use xlink:href="#DejaVuSans-30" x="63.623047"/>
       <use xlink:href="#DejaVuSans-30" x="127.246094"/>
       <use xlink:href="#DejaVuSans-30" x="190.869141"/>
      </g>
     </g>
    </g>
    <g id="xtick_6">
     <g id="line2d_11">
      <path d="M 304.268049 273.312 
L 304.268049 7.2 
" clip-path="url(#p3e53ee52c1)" style="fill: none; stroke-dasharray: 3.7,1.6; stroke-dashoffset: 0; stroke: #b0b0b0"/>
     </g>
     <g id="line2d_12">
      <g>
       <use xlink:href="#m203b51309d" x="304.268049" y="273.312" style="stroke: #000000; stroke-width: 0.8"/>
      </g>
     </g>
     <g id="text_6">
      <!-- 2500 -->
      <g transform="translate(288.998049 289.430125)scale(0.12 -0.12)">
       <use xlink:href="#DejaVuSans-32"/>
       <use xlink:href="#DejaVuSans-35" x="63.623047"/>
       <use xlink:href="#DejaVuSans-30" x="127.246094"/>
       <use xlink:href="#DejaVuSans-30" x="190.869141"/>
      </g>
     </g>
    </g>
    <g id="xtick_7">
     <g id="line2d_13">
      <path d="M 348.294974 273.312 
L 348.294974 7.2 
" clip-path="url(#p3e53ee52c1)" style="fill: none; stroke-dasharray: 3.7,1.6; stroke-dashoffset: 0; stroke: #b0b0b0"/>
     </g>
     <g id="line2d_14">
      <g>
       <use xlink:href="#m203b51309d" x="348.294974" y="273.312" style="stroke: #000000; stroke-width: 0.8"/>
      </g>
     </g>
     <g id="text_7">
      <!-- 3000 -->
      <g transform="translate(333.024974 289.430125)scale(0.12 -0.12)">
       <defs>
        <path id="DejaVuSans-33" d="M 2597 2516 
Q 3050 2419 3304 2112 
Q 3559 1806 3559 1356 
Q 3559 666 3084 287 
Q 2609 -91 1734 -91 
Q 1441 -91 1130 -33 
Q 819 25 488 141 
L 488 750 
Q 750 597 1062 519 
Q 1375 441 1716 441 
Q 2309 441 2620 675 
Q 2931 909 2931 1356 
Q 2931 1769 2642 2001 
Q 2353 2234 1838 2234 
L 1294 2234 
L 1294 2753 
L 1863 2753 
Q 2328 2753 2575 2939 
Q 2822 3125 2822 3475 
Q 2822 3834 2567 4026 
Q 2313 4219 1838 4219 
Q 1578 4219 1281 4162 
Q 984 4106 628 3988 
L 628 4550 
Q 988 4650 1302 4700 
Q 1616 4750 1894 4750 
Q 2613 4750 3031 4423 
Q 3450 4097 3450 3541 
Q 3450 3153 3228 2886 
Q 3006 2619 2597 2516 
z
" transform="scale(0.015625)"/>
       </defs>
       <use xlink:href="#DejaVuSans-33"/>
       <use xlink:href="#DejaVuSans-30" x="63.623047"/>
       <use xlink:href="#DejaVuSans-30" x="127.246094"/>
       <use xlink:href="#DejaVuSans-30" x="190.869141"/>
      </g>
     </g>
    </g>
    <g id="xtick_8">
     <g id="line2d_15">
      <path d="M 392.321899 273.312 
L 392.321899 7.2 
" clip-path="url(#p3e53ee52c1)" style="fill: none; stroke-dasharray: 3.7,1.6; stroke-dashoffset: 0; stroke: #b0b0b0"/>
     </g>
     <g id="line2d_16">
      <g>
       <use xlink:href="#m203b51309d" x="392.321899" y="273.312" style="stroke: #000000; stroke-width: 0.8"/>
      </g>
     </g>
     <g id="text_8">
      <!-- 3500 -->
      <g transform="translate(377.051899 289.430125)scale(0.12 -0.12)">
       <use xlink:href="#DejaVuSans-33"/>
       <use xlink:href="#DejaVuSans-35" x="63.623047"/>
       <use xlink:href="#DejaVuSans-30" x="127.246094"/>
       <use xlink:href="#DejaVuSans-30" x="190.869141"/>
      </g>
     </g>
    </g>
    <g id="text_9">
     <!-- Zone Number -->
     <g transform="translate(205.263125 305.043875)scale(0.12 -0.12)">
      <defs>
       <path id="DejaVuSans-5a" d="M 359 4666 
L 4025 4666 
L 4025 4184 
L 1075 531 
L 4097 531 
L 4097 0 
L 288 0 
L 288 481 
L 3238 4134 
L 359 4134 
L 359 4666 
z
" transform="scale(0.015625)"/>
       <path id="DejaVuSans-6f" d="M 1959 3097 
Q 1497 3097 1228 2736 
Q 959 2375 959 1747 
Q 959 1119 1226 758 
Q 1494 397 1959 397 
Q 2419 397 2687 759 
Q 2956 1122 2956 1747 
Q 2956 2369 2687 2733 
Q 2419 3097 1959 3097 
z
M 1959 3584 
Q 2709 3584 3137 3096 
Q 3566 2609 3566 1747 
Q 3566 888 3137 398 
Q 2709 -91 1959 -91 
Q 1206 -91 779 398 
Q 353 888 353 1747 
Q 353 2609 779 3096 
Q 1206 3584 1959 3584 
z
" transform="scale(0.015625)"/>
       <path id="DejaVuSans-6e" d="M 3513 2113 
L 3513 0 
L 2938 0 
L 2938 2094 
Q 2938 2591 2744 2837 
Q 2550 3084 2163 3084 
Q 1697 3084 1428 2787 
Q 1159 2491 1159 1978 
L 1159 0 
L 581 0 
L 581 3500 
L 1159 3500 
L 1159 2956 
Q 1366 3272 1645 3428 
Q 1925 3584 2291 3584 
Q 2894 3584 3203 3211 
Q 3513 2838 3513 2113 
z
" transform="scale(0.015625)"/>
       <path id="DejaVuSans-65" d="M 3597 1894 
L 3597 1613 
L 953 1613 
Q 991 1019 1311 708 
Q 1631 397 2203 397 
Q 2534 397 2845 478 
Q 3156 559 3463 722 
L 3463 178 
Q 3153 47 2828 -22 
Q 2503 -91 2169 -91 
Q 1331 -91 842 396 
Q 353 884 353 1716 
Q 353 2575 817 3079 
Q 1281 3584 2069 3584 
Q 2775 3584 3186 3129 
Q 3597 2675 3597 1894 
z
M 3022 2063 
Q 3016 2534 2758 2815 
Q 2500 3097 2075 3097 
Q 1594 3097 1305 2825 
Q 1016 2553 972 2059 
L 3022 2063 
z
" transform="scale(0.015625)"/>
       <path id="DejaVuSans-20" transform="scale(0.015625)"/>
       <path id="DejaVuSans-4e" d="M 628 4666 
L 1478 4666 
L 3547 763 
L 3547 4666 
L 4159 4666 
L 4159 0 
L 3309 0 
L 1241 3903 
L 1241 0 
L 628 0 
L 628 4666 
z
" transform="scale(0.015625)"/>
       <path id="DejaVuSans-75" d="M 544 1381 
L 544 3500 
L 1119 3500 
L 1119 1403 
Q 1119 906 1312 657 
Q 1506 409 1894 409 
Q 2359 409 2629 706 
Q 2900 1003 2900 1516 
L 2900 3500 
L 3475 3500 
L 3475 0 
L 2900 0 
L 2900 538 
Q 2691 219 2414 64 
Q 2138 -91 1772 -91 
Q 1169 -91 856 284 
Q 544 659 544 1381 
z
M 1991 3584 
L 1991 3584 
z
" transform="scale(0.015625)"/>
       <path id="DejaVuSans-6d" d="M 3328 2828 
Q 3544 3216 3844 3400 
Q 4144 3584 4550 3584 
Q 5097 3584 5394 3201 
Q 5691 2819 5691 2113 
L 5691 0 
L 5113 0 
L 5113 2094 
Q 5113 2597 4934 2840 
Q 4756 3084 4391 3084 
Q 3944 3084 3684 2787 
Q 3425 2491 3425 1978 
L 3425 0 
L 2847 0 
L 2847 2094 
Q 2847 2600 2669 2842 
Q 2491 3084 2119 3084 
Q 1678 3084 1418 2786 
Q 1159 2488 1159 1978 
L 1159 0 
L 581 0 
L 581 3500 
L 1159 3500 
L 1159 2956 
Q 1356 3278 1631 3431 
Q 1906 3584 2284 3584 
Q 2666 3584 2933 3390 
Q 3200 3197 3328 2828 
z
" transform="scale(0.015625)"/>
       <path id="DejaVuSans-62" d="M 3116 1747 
Q 3116 2381 2855 2742 
Q 2594 3103 2138 3103 
Q 1681 3103 1420 2742 
Q 1159 2381 1159 1747 
Q 1159 1113 1420 752 
Q 1681 391 2138 391 
Q 2594 391 2855 752 
Q 3116 1113 3116 1747 
z
M 1159 2969 
Q 1341 3281 1617 3432 
Q 1894 3584 2278 3584 
Q 2916 3584 3314 3078 
Q 3713 2572 3713 1747 
Q 3713 922 3314 415 
Q 2916 -91 2278 -91 
Q 1894 -91 1617 61 
Q 1341 213 1159 525 
L 1159 0 
L 581 0 
L 581 4863 
L 1159 4863 
L 1159 2969 
z
" transform="scale(0.015625)"/>
       <path id="DejaVuSans-72" d="M 2631 2963 
Q 2534 3019 2420 3045 
Q 2306 3072 2169 3072 
Q 1681 3072 1420 2755 
Q 1159 2438 1159 1844 
L 1159 0 
L 581 0 
L 581 3500 
L 1159 3500 
L 1159 2956 
Q 1341 3275 1631 3429 
Q 1922 3584 2338 3584 
Q 2397 3584 2469 3576 
Q 2541 3569 2628 3553 
L 2631 2963 
z
" transform="scale(0.015625)"/>
      </defs>
      <use xlink:href="#DejaVuSans-5a"/>
      <use xlink:href="#DejaVuSans-6f" x="68.505859"/>
      <use xlink:href="#DejaVuSans-6e" x="129.6875"/>
      <use xlink:href="#DejaVuSans-65" x="193.066406"/>
      <use xlink:href="#DejaVuSans-20" x="254.589844"/>
      <use xlink:href="#DejaVuSans-4e" x="286.376953"/>
      <use xlink:href="#DejaVuSans-75" x="361.181641"/>
      <use xlink:href="#DejaVuSans-6d" x="424.560547"/>
      <use xlink:href="#DejaVuSans-62" x="521.972656"/>
      <use xlink:href="#DejaVuSans-65" x="585.449219"/>
      <use xlink:href="#DejaVuSans-72" x="646.972656"/>
     </g>
    </g>
   </g>
   <g id="matplotlib.axis_2">
    <g id="ytick_1">
     <g id="line2d_17">
      <path d="M 67.98875 273.312 
L 425.10875 273.312 
" clip-path="url(#p3e53ee52c1)" style="fill: none; stroke-dasharray: 3.7,1.6; stroke-dashoffset: 0; stroke: #b0b0b0"/>
     </g>
     <g id="line2d_18">
      <defs>
       <path id="m1a70fe8590" d="M 0 0 
L -3.5 0 
" style="stroke: #000000; stroke-width: 0.8"/>
      </defs>
      <g>
       <use xlink:href="#m1a70fe8590" x="67.98875" y="273.312" style="stroke: #000000; stroke-width: 0.8"/>
      </g>
     </g>
     <g id="text_10">
      <!-- 0 -->
      <g transform="translate(53.35375 277.871062)scale(0.12 -0.12)">
       <use xlink:href="#DejaVuSans-30"/>
      </g>
     </g>
    </g>
    <g id="ytick_2">
     <g id="line2d_19">
      <path d="M 67.98875 234.004176 
L 425.10875 234.004176 
" clip-path="url(#p3e53ee52c1)" style="fill: none; stroke-dasharray: 3.7,1.6; stroke-dashoffset: 0; stroke: #b0b0b0"/>
     </g>
     <g id="line2d_20">
      <g>
       <use xlink:href="#m1a70fe8590" x="67.98875" y="234.004176" style="stroke: #000000; stroke-width: 0.8"/>
      </g>
     </g>
     <g id="text_11">
      <!-- 2000 -->
      <g transform="translate(30.44875 238.563239)scale(0.12 -0.12)">
       <use xlink:href="#DejaVuSans-32"/>
       <use xlink:href="#DejaVuSans-30" x="63.623047"/>
       <use xlink:href="#DejaVuSans-30" x="127.246094"/>
       <use xlink:href="#DejaVuSans-30" x="190.869141"/>
      </g>
     </g>
    </g>
    <g id="ytick_3">
     <g id="line2d_21">
      <path d="M 67.98875 194.696353 
L 425.10875 194.696353 
" clip-path="url(#p3e53ee52c1)" style="fill: none; stroke-dasharray: 3.7,1.6; stroke-dashoffset: 0; stroke: #b0b0b0"/>
     </g>
     <g id="line2d_22">
      <g>
       <use xlink:href="#m1a70fe8590" x="67.98875" y="194.696353" style="stroke: #000000; stroke-width: 0.8"/>
      </g>
     </g>
     <g id="text_12">
      <!-- 4000 -->
      <g transform="translate(30.44875 199.255415)scale(0.12 -0.12)">
       <defs>
        <path id="DejaVuSans-34" d="M 2419 4116 
L 825 1625 
L 2419 1625 
L 2419 4116 
z
M 2253 4666 
L 3047 4666 
L 3047 1625 
L 3713 1625 
L 3713 1100 
L 3047 1100 
L 3047 0 
L 2419 0 
L 2419 1100 
L 313 1100 
L 313 1709 
L 2253 4666 
z
" transform="scale(0.015625)"/>
       </defs>
       <use xlink:href="#DejaVuSans-34"/>
       <use xlink:href="#DejaVuSans-30" x="63.623047"/>
       <use xlink:href="#DejaVuSans-30" x="127.246094"/>
       <use xlink:href="#DejaVuSans-30" x="190.869141"/>
      </g>
     </g>
    </g>
    <g id="ytick_4">
     <g id="line2d_23">
      <path d="M 67.98875 155.388529 
L 425.10875 155.388529 
" clip-path="url(#p3e53ee52c1)" style="fill: none; stroke-dasharray: 3.7,1.6; stroke-dashoffset: 0; stroke: #b0b0b0"/>
     </g>
     <g id="line2d_24">
      <g>
       <use xlink:href="#m1a70fe8590" x="67.98875" y="155.388529" style="stroke: #000000; stroke-width: 0.8"/>
      </g>
     </g>
     <g id="text_13">
      <!-- 6000 -->
      <g transform="translate(30.44875 159.947592)scale(0.12 -0.12)">
       <defs>
        <path id="DejaVuSans-36" d="M 2113 2584 
Q 1688 2584 1439 2293 
Q 1191 2003 1191 1497 
Q 1191 994 1439 701 
Q 1688 409 2113 409 
Q 2538 409 2786 701 
Q 3034 994 3034 1497 
Q 3034 2003 2786 2293 
Q 2538 2584 2113 2584 
z
M 3366 4563 
L 3366 3988 
Q 3128 4100 2886 4159 
Q 2644 4219 2406 4219 
Q 1781 4219 1451 3797 
Q 1122 3375 1075 2522 
Q 1259 2794 1537 2939 
Q 1816 3084 2150 3084 
Q 2853 3084 3261 2657 
Q 3669 2231 3669 1497 
Q 3669 778 3244 343 
Q 2819 -91 2113 -91 
Q 1303 -91 875 529 
Q 447 1150 447 2328 
Q 447 3434 972 4092 
Q 1497 4750 2381 4750 
Q 2619 4750 2861 4703 
Q 3103 4656 3366 4563 
z
" transform="scale(0.015625)"/>
       </defs>
       <use xlink:href="#DejaVuSans-36"/>
       <use xlink:href="#DejaVuSans-30" x="63.623047"/>
       <use xlink:href="#DejaVuSans-30" x="127.246094"/>
       <use xlink:href="#DejaVuSans-30" x="190.869141"/>
      </g>
     </g>
    </g>
    <g id="ytick_5">
     <g id="line2d_25">
      <path d="M 67.98875 116.080706 
L 425.10875 116.080706 
" clip-path="url(#p3e53ee52c1)" style="fill: none; stroke-dasharray: 3.7,1.6; stroke-dashoffset: 0; stroke: #b0b0b0"/>
     </g>
     <g id="line2d_26">
      <g>
       <use xlink:href="#m1a70fe8590" x="67.98875" y="116.080706" style="stroke: #000000; stroke-width: 0.8"/>
      </g>
     </g>
     <g id="text_14">
      <!-- 8000 -->
      <g transform="translate(30.44875 120.639768)scale(0.12 -0.12)">
       <defs>
        <path id="DejaVuSans-38" d="M 2034 2216 
Q 1584 2216 1326 1975 
Q 1069 1734 1069 1313 
Q 1069 891 1326 650 
Q 1584 409 2034 409 
Q 2484 409 2743 651 
Q 3003 894 3003 1313 
Q 3003 1734 2745 1975 
Q 2488 2216 2034 2216 
z
M 1403 2484 
Q 997 2584 770 2862 
Q 544 3141 544 3541 
Q 544 4100 942 4425 
Q 1341 4750 2034 4750 
Q 2731 4750 3128 4425 
Q 3525 4100 3525 3541 
Q 3525 3141 3298 2862 
Q 3072 2584 2669 2484 
Q 3125 2378 3379 2068 
Q 3634 1759 3634 1313 
Q 3634 634 3220 271 
Q 2806 -91 2034 -91 
Q 1263 -91 848 271 
Q 434 634 434 1313 
Q 434 1759 690 2068 
Q 947 2378 1403 2484 
z
M 1172 3481 
Q 1172 3119 1398 2916 
Q 1625 2713 2034 2713 
Q 2441 2713 2670 2916 
Q 2900 3119 2900 3481 
Q 2900 3844 2670 4047 
Q 2441 4250 2034 4250 
Q 1625 4250 1398 4047 
Q 1172 3844 1172 3481 
z
" transform="scale(0.015625)"/>
       </defs>
       <use xlink:href="#DejaVuSans-38"/>
       <use xlink:href="#DejaVuSans-30" x="63.623047"/>
       <use xlink:href="#DejaVuSans-30" x="127.246094"/>
       <use xlink:href="#DejaVuSans-30" x="190.869141"/>
      </g>
     </g>
    </g>
    <g id="ytick_6">
     <g id="line2d_27">
      <path d="M 67.98875 76.772882 
L 425.10875 76.772882 
" clip-path="url(#p3e53ee52c1)" style="fill: none; stroke-dasharray: 3.7,1.6; stroke-dashoffset: 0; stroke: #b0b0b0"/>
     </g>
     <g id="line2d_28">
      <g>
       <use xlink:href="#m1a70fe8590" x="67.98875" y="76.772882" style="stroke: #000000; stroke-width: 0.8"/>
      </g>
     </g>
     <g id="text_15">
      <!-- 10000 -->
      <g transform="translate(22.81375 81.331945)scale(0.12 -0.12)">
       <use xlink:href="#DejaVuSans-31"/>
       <use xlink:href="#DejaVuSans-30" x="63.623047"/>
       <use xlink:href="#DejaVuSans-30" x="127.246094"/>
       <use xlink:href="#DejaVuSans-30" x="190.869141"/>
       <use xlink:href="#DejaVuSans-30" x="254.492188"/>
      </g>
     </g>
    </g>
    <g id="ytick_7">
     <g id="line2d_29">
      <path d="M 67.98875 37.465059 
L 425.10875 37.465059 
" clip-path="url(#p3e53ee52c1)" style="fill: none; stroke-dasharray: 3.7,1.6; stroke-dashoffset: 0; stroke: #b0b0b0"/>
     </g>
     <g id="line2d_30">
      <g>
       <use xlink:href="#m1a70fe8590" x="67.98875" y="37.465059" style="stroke: #000000; stroke-width: 0.8"/>
      </g>
     </g>
     <g id="text_16">
      <!-- 12000 -->
      <g transform="translate(22.81375 42.024121)scale(0.12 -0.12)">
       <use xlink:href="#DejaVuSans-31"/>
       <use xlink:href="#DejaVuSans-32" x="63.623047"/>
       <use xlink:href="#DejaVuSans-30" x="127.246094"/>
       <use xlink:href="#DejaVuSans-30" x="190.869141"/>
       <use xlink:href="#DejaVuSans-30" x="254.492188"/>
      </g>
     </g>
    </g>
    <g id="text_17">
     <!-- Latency (usec) -->
     <g transform="translate(16.318125 184.480687)rotate(-90)scale(0.12 -0.12)">
      <defs>
       <path id="DejaVuSans-4c" d="M 628 4666 
L 1259 4666 
L 1259 531 
L 3531 531 
L 3531 0 
L 628 0 
L 628 4666 
z
" transform="scale(0.015625)"/>
       <path id="DejaVuSans-61" d="M 2194 1759 
Q 1497 1759 1228 1600 
Q 959 1441 959 1056 
Q 959 750 1161 570 
Q 1363 391 1709 391 
Q 2188 391 2477 730 
Q 2766 1069 2766 1631 
L 2766 1759 
L 2194 1759 
z
M 3341 1997 
L 3341 0 
L 2766 0 
L 2766 531 
Q 2569 213 2275 61 
Q 1981 -91 1556 -91 
Q 1019 -91 701 211 
Q 384 513 384 1019 
Q 384 1609 779 1909 
Q 1175 2209 1959 2209 
L 2766 2209 
L 2766 2266 
Q 2766 2663 2505 2880 
Q 2244 3097 1772 3097 
Q 1472 3097 1187 3025 
Q 903 2953 641 2809 
L 641 3341 
Q 956 3463 1253 3523 
Q 1550 3584 1831 3584 
Q 2591 3584 2966 3190 
Q 3341 2797 3341 1997 
z
" transform="scale(0.015625)"/>
       <path id="DejaVuSans-74" d="M 1172 4494 
L 1172 3500 
L 2356 3500 
L 2356 3053 
L 1172 3053 
L 1172 1153 
Q 1172 725 1289 603 
Q 1406 481 1766 481 
L 2356 481 
L 2356 0 
L 1766 0 
Q 1100 0 847 248 
Q 594 497 594 1153 
L 594 3053 
L 172 3053 
L 172 3500 
L 594 3500 
L 594 4494 
L 1172 4494 
z
" transform="scale(0.015625)"/>
       <path id="DejaVuSans-63" d="M 3122 3366 
L 3122 2828 
Q 2878 2963 2633 3030 
Q 2388 3097 2138 3097 
Q 1578 3097 1268 2742 
Q 959 2388 959 1747 
Q 959 1106 1268 751 
Q 1578 397 2138 397 
Q 2388 397 2633 464 
Q 2878 531 3122 666 
L 3122 134 
Q 2881 22 2623 -34 
Q 2366 -91 2075 -91 
Q 1284 -91 818 406 
Q 353 903 353 1747 
Q 353 2603 823 3093 
Q 1294 3584 2113 3584 
Q 2378 3584 2631 3529 
Q 2884 3475 3122 3366 
z
" transform="scale(0.015625)"/>
       <path id="DejaVuSans-79" d="M 2059 -325 
Q 1816 -950 1584 -1140 
Q 1353 -1331 966 -1331 
L 506 -1331 
L 506 -850 
L 844 -850 
Q 1081 -850 1212 -737 
Q 1344 -625 1503 -206 
L 1606 56 
L 191 3500 
L 800 3500 
L 1894 763 
L 2988 3500 
L 3597 3500 
L 2059 -325 
z
" transform="scale(0.015625)"/>
       <path id="DejaVuSans-28" d="M 1984 4856 
Q 1566 4138 1362 3434 
Q 1159 2731 1159 2009 
Q 1159 1288 1364 580 
Q 1569 -128 1984 -844 
L 1484 -844 
Q 1016 -109 783 600 
Q 550 1309 550 2009 
Q 550 2706 781 3412 
Q 1013 4119 1484 4856 
L 1984 4856 
z
" transform="scale(0.015625)"/>
       <path id="DejaVuSans-73" d="M 2834 3397 
L 2834 2853 
Q 2591 2978 2328 3040 
Q 2066 3103 1784 3103 
Q 1356 3103 1142 2972 
Q 928 2841 928 2578 
Q 928 2378 1081 2264 
Q 1234 2150 1697 2047 
L 1894 2003 
Q 2506 1872 2764 1633 
Q 3022 1394 3022 966 
Q 3022 478 2636 193 
Q 2250 -91 1575 -91 
Q 1294 -91 989 -36 
Q 684 19 347 128 
L 347 722 
Q 666 556 975 473 
Q 1284 391 1588 391 
Q 1994 391 2212 530 
Q 2431 669 2431 922 
Q 2431 1156 2273 1281 
Q 2116 1406 1581 1522 
L 1381 1569 
Q 847 1681 609 1914 
Q 372 2147 372 2553 
Q 372 3047 722 3315 
Q 1072 3584 1716 3584 
Q 2034 3584 2315 3537 
Q 2597 3491 2834 3397 
z
" transform="scale(0.015625)"/>
       <path id="DejaVuSans-29" d="M 513 4856 
L 1013 4856 
Q 1481 4119 1714 3412 
Q 1947 2706 1947 2009 
Q 1947 1309 1714 600 
Q 1481 -109 1013 -844 
L 513 -844 
Q 928 -128 1133 580 
Q 1338 1288 1338 2009 
Q 1338 2731 1133 3434 
Q 928 4138 513 4856 
z
" transform="scale(0.015625)"/>
      </defs>
      <use xlink:href="#DejaVuSans-4c"/>
      <use xlink:href="#DejaVuSans-61" x="55.712891"/>
      <use xlink:href="#DejaVuSans-74" x="116.992188"/>
      <use xlink:href="#DejaVuSans-65" x="156.201172"/>
      <use xlink:href="#DejaVuSans-6e" x="217.724609"/>
      <use xlink:href="#DejaVuSans-63" x="281.103516"/>
      <use xlink:href="#DejaVuSans-79" x="336.083984"/>
      <use xlink:href="#DejaVuSans-20" x="395.263672"/>
      <use xlink:href="#DejaVuSans-28" x="427.050781"/>
      <use xlink:href="#DejaVuSans-75" x="466.064453"/>
      <use xlink:href="#DejaVuSans-73" x="529.443359"/>
      <use xlink:href="#DejaVuSans-65" x="581.542969"/>
      <use xlink:href="#DejaVuSans-63" x="643.066406"/>
      <use xlink:href="#DejaVuSans-29" x="698.046875"/>
     </g>
    </g>
   </g>
   <g id="line2d_31">
    <path d="M 84.221477 66.238386 
L 84.309531 67.476582 
L 84.397585 65.15742 
L 84.485639 70.208476 
L 84.573693 69.717128 
L 84.661747 69.088203 
L 84.7498 57.177932 
L 85.102016 75.750879 
L 85.19007 67.044196 
L 85.278123 70.051244 
L 85.454231 57.512049 
L 85.630339 84.319984 
L 85.718393 69.402665 
L 85.806447 74.65026 
L 85.8945 59.791903 
L 85.982554 74.571644 
L 86.070608 70.798093 
L 86.158662 58.435783 
L 86.33477 76.831844 
L 86.422824 79.544084 
L 86.686985 68.930971 
L 86.775039 76.713921 
L 86.951147 71.977328 
L 87.0392 76.084995 
L 87.127254 76.065341 
L 87.215308 73.844449 
L 87.303362 78.011079 
L 87.47947 72.39006 
L 87.655577 77.696616 
L 87.743631 72.684869 
L 87.831685 74.19822 
L 87.919739 70.011937 
L 88.007793 75.259531 
L 88.095847 71.820097 
L 88.183901 74.040989 
L 88.360008 61.128369 
L 88.448062 65.491537 
L 88.536116 62.622066 
L 88.712224 73.628256 
L 88.800277 65.570153 
L 88.976385 69.815398 
L 89.064439 82.767325 
L 89.240547 63.44753 
L 89.328601 73.235178 
L 89.416654 69.500935 
L 89.504708 72.724176 
L 89.680816 66.808349 
L 89.76887 73.392409 
L 89.856924 68.361008 
L 89.944978 69.107857 
L 90.209139 76.674613 
L 90.297193 69.343704 
L 90.385247 78.482773 
L 90.473301 72.055943 
L 90.561354 75.809841 
L 90.649408 71.898712 
L 90.737462 76.202919 
L 90.825516 52.028607 
L 90.91357 67.103158 
L 91.001624 66.552848 
L 91.089678 62.877567 
L 91.177731 63.250991 
L 91.265785 68.970279 
L 91.441893 62.622066 
L 91.529947 68.007238 
L 91.618001 60.38152 
L 91.706055 63.919224 
L 91.882162 80.900204 
L 91.970216 81.214666 
L 92.146324 73.490679 
L 92.234378 68.87201 
L 92.586593 75.298839 
L 92.674647 74.473375 
L 92.762701 76.45842 
L 92.850755 72.901062 
L 92.938808 76.084995 
L 93.20297 61.246292 
L 93.379078 75.023684 
L 93.555185 56.332814 
L 93.643239 79.740623 
L 93.731293 72.8421 
L 93.819347 75.436416 
L 93.907401 71.328749 
L 94.083508 76.00638 
L 94.171562 75.986726 
L 94.523778 70.326399 
L 94.699885 78.089694 
L 94.787939 76.733574 
L 94.875993 76.91046 
L 94.964047 75.986726 
L 95.052101 76.989075 
L 95.140155 73.706872 
L 95.228209 58.160628 
L 95.404316 81.588091 
L 95.580424 60.971137 
L 95.932639 74.493029 
L 96.020693 70.974978 
L 96.108747 48.569519 
L 96.196801 67.614159 
L 96.284855 66.493886 
L 96.372909 75.672263 
L 96.549016 55.585965 
L 96.63707 67.96793 
L 96.725124 64.90192 
L 96.813178 65.275344 
L 96.901232 62.916874 
L 96.989286 69.304396 
L 97.077339 60.774598 
L 97.165393 69.186472 
L 97.253447 45.30697 
L 97.429555 69.520589 
L 97.517609 71.525288 
L 97.605662 60.479789 
L 97.78177 67.633813 
L 97.869824 68.066199 
L 98.045932 72.8421 
L 98.133986 67.751737 
L 98.398147 81.470167 
L 98.662309 68.3217 
L 98.750363 68.87201 
L 98.92647 75.259531 
L 99.014524 72.173867 
L 99.102578 74.276835 
L 99.190632 70.188822 
L 99.278686 75.338147 
L 99.366739 65.825653 
L 99.454793 74.984376 
L 99.542847 72.763484 
L 99.630901 75.495378 
L 99.718955 71.859404 
L 99.807009 77.323192 
L 99.895063 76.772882 
L 99.983116 71.93802 
L 100.07117 74.316143 
L 100.159224 68.262738 
L 100.247278 75.868802 
L 100.335332 67.358659 
L 100.423386 68.223431 
L 100.51144 69.972629 
L 100.599493 66.572502 
L 100.687547 58.180282 
L 100.775601 71.073248 
L 101.039763 59.280901 
L 101.303924 76.143957 
L 101.480032 65.963231 
L 101.744193 82.158054 
L 101.832247 66.474233 
L 101.920301 68.77374 
L 102.008355 72.606253 
L 102.096409 67.850006 
L 102.184463 68.380662 
L 102.36057 76.379804 
L 102.448624 66.552848 
L 102.624732 75.220223 
L 102.712786 74.512682 
L 102.80084 77.067691 
L 102.976947 74.512682 
L 103.153055 79.622699 
L 103.241109 71.053594 
L 103.329163 74.846799 
L 103.417217 71.682519 
L 103.50527 75.967072 
L 103.593324 31.392 
L 103.769432 71.427018 
L 103.94554 78.659658 
L 104.033594 78.640004 
L 104.209701 74.19822 
L 104.297755 72.861754 
L 104.385809 68.3217 
L 104.473863 72.566945 
L 104.561917 71.643211 
L 104.649971 73.353102 
L 104.738024 70.149514 
L 104.914132 73.018985 
L 105.09024 77.932463 
L 105.178294 78.816889 
L 105.266347 76.36015 
L 105.354401 79.367199 
L 105.442455 67.299697 
L 105.530509 73.74618 
L 105.618563 68.87201 
L 105.794671 76.576343 
L 105.882724 52.952341 
L 106.058832 71.93802 
L 106.146886 62.150372 
L 106.23494 73.274486 
L 106.411048 63.683377 
L 106.499101 63.486838 
L 106.587155 71.957674 
L 106.675209 70.051244 
L 106.763263 65.688076 
L 106.851317 84.241369 
L 107.115478 66.572502 
L 107.203532 69.795744 
L 107.291586 67.673121 
L 107.37964 78.757927 
L 107.731855 63.958532 
L 107.819909 64.508841 
L 107.907963 77.71627 
L 108.084071 67.201427 
L 108.260178 74.453721 
L 108.348232 69.638512 
L 108.436286 74.866453 
L 108.700448 69.009587 
L 108.788501 77.008729 
L 108.876555 70.463977 
L 109.052663 76.183265 
L 109.140717 69.481281 
L 109.228771 72.193521 
L 109.316825 69.068549 
L 109.492932 78.286233 
L 109.580986 77.048037 
L 109.66904 73.726526 
L 109.757094 74.925415 
L 109.845148 84.418254 
L 110.021255 73.490679 
L 110.197363 75.927764 
L 110.373471 71.230479 
L 110.549578 77.71627 
L 110.637632 74.119604 
L 110.81374 77.952117 
L 110.901794 74.846799 
L 110.989848 67.142466 
L 111.077902 74.787837 
L 111.165955 67.004888 
L 111.254009 68.380662 
L 111.430117 75.200569 
L 111.518171 75.632955 
L 111.606225 73.64791 
L 111.782332 67.358659 
L 111.95844 77.893155 
L 112.134548 62.150372 
L 112.222602 73.962373 
L 112.310655 67.299697 
L 112.662871 74.001681 
L 112.838979 60.204635 
L 113.015086 72.763484 
L 113.191194 71.053594 
L 113.279248 82.452863 
L 113.455356 68.518239 
L 113.543409 77.008729 
L 113.631463 73.038639 
L 113.719517 77.696616 
L 113.807571 72.940369 
L 113.895625 73.549641 
L 113.983679 72.350752 
L 114.071732 77.244576 
L 114.159786 71.348403 
L 114.24784 75.829495 
L 114.423948 71.761135 
L 114.512002 74.630606 
L 114.600056 64.70538 
L 114.688109 73.353102 
L 114.776163 62.582758 
L 114.952271 77.559039 
L 115.040325 73.74618 
L 115.128379 75.947418 
L 115.216433 69.894013 
L 115.39254 79.504776 
L 115.568648 76.065341 
L 115.656702 79.386853 
L 115.744756 71.761135 
L 115.832809 72.527637 
L 115.920863 73.510333 
L 116.008917 77.283884 
L 116.185025 71.721827 
L 116.273079 72.449022 
L 116.361133 74.080296 
L 116.449186 69.088203 
L 116.53724 71.957674 
L 116.625294 66.474233 
L 116.889456 83.750021 
L 117.065563 67.142466 
L 117.153617 79.406506 
L 117.329725 56.883124 
L 117.417779 80.546433 
L 117.505833 66.867311 
L 117.593886 69.618858 
L 117.68194 71.83975 
L 117.769994 67.299697 
L 117.858048 72.822446 
L 117.946102 67.574852 
L 118.12221 71.328749 
L 118.298317 69.854705 
L 118.386371 70.051244 
L 118.474425 70.699824 
L 118.562479 73.628256 
L 118.738587 66.867311 
L 118.82664 72.48833 
L 118.914694 68.223431 
L 119.002748 77.598347 
L 119.178856 69.854705 
L 119.26691 65.766692 
L 119.354963 72.507983 
L 119.443017 64.390918 
L 119.531071 76.478074 
L 119.619125 68.77374 
L 119.707179 71.092902 
L 119.795233 70.758785 
L 119.883287 71.092902 
L 119.97134 66.906619 
L 120.235502 84.339638 
L 120.41161 68.714778 
L 120.499664 68.459278 
L 120.675771 73.765834 
L 120.851879 71.702173 
L 121.027987 73.962373 
L 121.11604 72.409714 
L 121.204094 53.050611 
L 121.292148 72.527637 
L 121.380202 71.682519 
L 121.468256 68.184123 
L 121.644364 78.050387 
L 121.732417 61.993141 
L 121.820471 64.096109 
L 122.084633 76.576343 
L 122.172687 76.733574 
L 122.260741 69.992283 
L 122.348794 78.71862 
L 122.436848 72.606253 
L 122.524902 77.421461 
L 122.612956 75.259531 
L 122.70101 70.365707 
L 122.789064 72.03629 
L 122.877117 78.954466 
L 122.965171 77.3625 
L 123.053225 68.950625 
L 123.229333 83.376597 
L 123.493494 70.798093 
L 123.581548 79.151006 
L 123.757656 67.142466 
L 123.933764 77.676962 
L 124.021818 76.969421 
L 124.197925 72.331098 
L 124.285979 71.820097 
L 124.374033 69.520589 
L 124.462087 76.281534 
L 124.638194 67.574852 
L 124.726248 75.672263 
L 125.078464 67.339005 
L 125.342625 73.058293 
L 125.430679 72.468676 
L 125.518733 69.304396 
L 125.782895 73.510333 
L 125.870948 66.847657 
L 125.959002 75.180915 
L 126.047056 69.363358 
L 126.13511 73.864103 
L 126.223164 69.854705 
L 126.311218 71.879058 
L 126.399271 67.044196 
L 126.487325 68.380662 
L 126.751487 81.509475 
L 126.927595 67.732083 
L 127.27981 75.90811 
L 127.367864 67.378312 
L 127.455918 78.423811 
L 127.632025 66.100808 
L 127.720079 68.3217 
L 127.808133 73.392409 
L 127.896187 72.566945 
L 127.984241 72.724176 
L 128.072295 73.844449 
L 128.160348 77.794886 
L 128.248402 70.5819 
L 128.42451 78.364849 
L 128.600618 74.178566 
L 128.864779 48.412288 
L 128.952833 76.772882 
L 129.040887 69.383011 
L 129.128941 71.643211 
L 129.216995 78.089694 
L 129.305049 67.987584 
L 129.393102 76.36015 
L 129.481156 71.544942 
L 129.657264 76.183265 
L 129.745318 75.062992 
L 129.833372 68.793394 
L 130.009479 75.986726 
L 130.097533 75.338147 
L 130.185587 77.342846 
L 130.273641 83.769675 
L 130.361695 73.74618 
L 130.449749 76.871152 
L 130.537802 73.136909 
L 130.625856 63.585107 
L 130.71391 76.143957 
L 130.801964 72.586599 
L 130.890018 72.645561 
L 130.978072 72.449022 
L 131.066126 72.665215 
L 131.154179 68.734432 
L 131.242233 70.424669 
L 131.330287 69.284742 
L 131.418341 73.726526 
L 131.506395 72.861754 
L 131.594449 68.341354 
L 131.770556 77.26423 
L 131.946664 66.51354 
L 132.034718 72.173867 
L 132.122772 72.095251 
L 132.210826 75.023684 
L 132.298879 37.62229 
L 132.474987 77.342846 
L 132.563041 69.22578 
L 132.651095 73.588949 
L 132.739149 68.125161 
L 132.827203 73.077947 
L 133.00331 70.326399 
L 133.179418 74.021335 
L 133.267472 66.15977 
L 133.355526 66.651118 
L 133.619687 73.412063 
L 133.707741 82.197362 
L 133.883849 70.699824 
L 133.971903 72.409714 
L 134.059956 67.594505 
L 134.14801 74.866453 
L 134.236064 73.588949 
L 134.412172 78.600696 
L 134.500226 60.499443 
L 134.58828 73.29414 
L 134.676333 69.933321 
L 134.852441 73.982027 
L 134.940495 64.528495 
L 135.116603 74.316143 
L 135.204657 74.335797 
L 135.29271 74.493029 
L 135.380764 72.095251 
L 135.468818 72.979677 
L 135.556872 70.188822 
L 135.73298 74.532336 
L 135.821033 73.864103 
L 135.909087 76.478074 
L 135.997141 75.967072 
L 136.173249 65.963231 
L 136.261303 76.537035 
L 136.43741 70.090552 
L 136.525464 77.71627 
L 136.613518 69.638512 
L 136.87768 82.158054 
L 137.229895 66.710079 
L 137.494057 76.379804 
L 137.58211 75.711571 
L 137.758218 68.911318 
L 137.846272 74.473375 
L 138.02238 68.302046 
L 138.110434 67.260389 
L 138.374595 78.07004 
L 138.462649 73.392409 
L 138.550703 76.871152 
L 138.638757 76.340496 
L 138.726811 75.515032 
L 138.814864 72.370406 
L 138.902918 74.728875 
L 138.990972 71.250133 
L 139.16708 76.890806 
L 139.255134 63.368914 
L 139.431241 74.257182 
L 139.519295 72.979677 
L 139.607349 75.573994 
L 139.783457 73.117255 
L 139.871511 74.532336 
L 139.959564 67.574852 
L 140.047618 73.64791 
L 140.135672 73.412063 
L 140.223726 73.451371 
L 140.31178 74.316143 
L 140.399834 84.359292 
L 140.575941 73.254832 
L 140.663995 73.471025 
L 140.840103 77.893155 
L 140.928157 73.235178 
L 141.016211 76.949767 
L 141.104264 74.669914 
L 141.192318 77.283884 
L 141.280372 76.91046 
L 141.45648 65.236036 
L 141.544534 66.886965 
L 141.632588 72.213175 
L 141.720641 70.719477 
L 141.896749 74.846799 
L 141.984803 69.343704 
L 142.160911 75.672263 
L 142.248965 68.911318 
L 142.337018 76.497728 
L 142.425072 56.273852 
L 142.60118 73.569295 
L 142.689234 71.446672 
L 142.777288 75.239877 
L 142.865341 69.913667 
L 142.953395 76.674613 
L 143.041449 70.208476 
L 143.129503 74.787837 
L 143.305611 71.446672 
L 143.393665 72.665215 
L 143.481718 66.15977 
L 143.657826 74.316143 
L 143.74588 73.549641 
L 143.833934 69.186472 
L 144.010042 84.909602 
L 144.098095 75.121954 
L 144.186149 76.00638 
L 144.274203 71.48598 
L 144.450311 75.731225 
L 144.626418 61.246292 
L 144.802526 77.205268 
L 144.978634 71.250133 
L 145.066688 71.309095 
L 145.242795 74.296489 
L 145.418903 69.717128 
L 145.506957 77.676962 
L 145.595011 73.097601 
L 145.683065 74.355451 
L 145.771119 62.012795 
L 145.859172 63.270645 
L 145.947226 75.062992 
L 146.03528 69.77609 
L 146.123334 71.761135 
L 146.211388 69.933321 
L 146.299442 70.503284 
L 146.475549 75.888456 
L 146.563603 73.982027 
L 146.651657 69.088203 
L 146.739711 75.239877 
L 146.827765 74.610952 
L 146.915819 73.588949 
L 147.003872 75.1023 
L 147.091926 79.583392 
L 147.268034 69.304396 
L 147.356088 76.340496 
L 147.444142 74.355451 
L 147.620249 82.570786 
L 147.796357 72.193521 
L 147.884411 73.805142 
L 147.972465 78.089694 
L 148.060519 69.088203 
L 148.148572 76.281534 
L 148.236626 74.237528 
L 148.32468 77.382154 
L 148.500788 70.5819 
L 148.588842 75.927764 
L 148.676896 70.719477 
L 148.764949 75.868802 
L 148.853003 75.691917 
L 149.117165 78.246926 
L 149.293273 78.07004 
L 149.381326 66.61181 
L 149.557434 75.809841 
L 149.645488 73.726526 
L 149.733542 75.318493 
L 149.821596 72.940369 
L 149.909649 77.696616 
L 149.997703 72.154213 
L 150.085757 76.084995 
L 150.173811 70.306745 
L 150.261865 77.578693 
L 150.437973 68.655817 
L 150.526026 72.272136 
L 150.61408 77.637654 
L 150.702134 71.48598 
L 150.878242 81.902553 
L 150.966296 79.662007 
L 151.230457 73.706872 
L 151.494619 77.834194 
L 151.582673 74.355451 
L 151.670726 76.36015 
L 151.846834 74.080296 
L 151.934888 74.55199 
L 152.022942 71.328749 
L 152.110996 72.409714 
L 152.19905 75.750879 
L 152.375157 73.431717 
L 152.463211 68.793394 
L 152.639319 76.340496 
L 152.727373 72.370406 
L 152.815427 77.81454 
L 152.991534 67.024542 
L 153.255696 73.726526 
L 153.431803 74.886107 
L 153.519857 77.106999 
L 153.607911 72.134559 
L 153.695965 76.143957 
L 153.784019 71.03394 
L 153.872073 77.657308 
L 154.04818 73.333448 
L 154.224288 53.954691 
L 154.312342 78.679312 
L 154.400396 69.599204 
L 154.576504 81.941861 
L 154.664557 66.002539 
L 154.752611 72.29179 
L 154.840665 63.703031 
L 154.928719 76.379804 
L 155.016773 66.670772 
L 155.104827 73.117255 
L 155.19288 70.778439 
L 155.280934 76.36015 
L 155.368988 72.48833 
L 155.457042 60.224289 
L 155.63315 75.90811 
L 155.809257 76.713921 
L 155.897311 69.952975 
L 155.985365 70.798093 
L 156.073419 77.755578 
L 156.161473 77.3625 
L 156.249527 62.602412 
L 156.425634 72.311444 
L 156.513688 70.837401 
L 156.601742 71.368057 
L 156.77785 75.495378 
L 156.865904 72.920716 
L 157.042011 74.846799 
L 157.218119 67.083504 
L 157.394227 74.905761 
L 157.482281 73.982027 
L 157.570334 70.385361 
L 157.834496 76.00638 
L 157.92255 71.348403 
L 158.010604 73.431717 
L 158.098658 83.691059 
L 158.274765 72.016636 
L 158.362819 73.353102 
L 158.450873 69.638512 
L 158.538927 75.849148 
L 158.626981 71.505634 
L 158.803088 73.569295 
L 158.979196 61.128369 
L 159.06725 76.615651 
L 159.155304 73.64791 
L 159.243358 74.237528 
L 159.331411 72.134559 
L 159.419465 76.065341 
L 159.507519 73.490679 
L 159.595573 77.775232 
L 159.683627 73.372756 
L 159.771681 75.986726 
L 159.859735 74.984376 
L 160.035842 78.482773 
L 160.123896 78.404157 
L 160.21195 73.431717 
L 160.300004 74.532336 
L 160.388058 75.868802 
L 160.476111 68.203777 
L 160.564165 73.962373 
L 160.652219 72.802792 
L 160.740273 65.727384 
L 160.916381 77.283884 
L 161.092488 73.254832 
L 161.180542 75.377455 
L 161.268596 75.220223 
L 161.35665 76.222573 
L 161.444704 72.979677 
L 161.532758 74.178566 
L 161.796919 81.745322 
L 161.973027 71.820097 
L 162.237188 76.399458 
L 162.325242 73.765834 
L 162.413296 74.394759 
L 162.50135 74.394759 
L 162.589404 77.696616 
L 162.765512 72.134559 
L 162.853565 79.956816 
L 163.029673 72.409714 
L 163.117727 78.089694 
L 163.205781 71.151864 
L 163.381889 76.065341 
L 163.469942 76.949767 
L 163.557996 76.930114 
L 163.822158 68.616509 
L 163.998265 73.785488 
L 164.086319 69.599204 
L 164.174373 69.952975 
L 164.350481 73.628256 
L 164.438535 73.982027 
L 164.526589 70.955324 
L 164.614642 71.623557 
L 164.702696 73.058293 
L 164.79075 77.873501 
L 164.878804 75.062992 
L 164.966858 75.515032 
L 165.054912 82.334939 
L 165.319073 73.726526 
L 165.407127 75.180915 
L 165.495181 73.176216 
L 165.583235 73.412063 
L 165.671289 74.335797 
L 165.759342 73.903411 
L 165.93545 76.674613 
L 166.023504 69.441973 
L 166.199612 77.224922 
L 166.375719 72.979677 
L 166.463773 72.547291 
L 166.551827 79.622699 
L 166.727935 70.385361 
L 166.992096 79.996124 
L 167.168204 71.38771 
L 167.256258 73.549641 
L 167.344312 74.119604 
L 167.52042 76.143957 
L 167.608473 75.888456 
L 167.696527 73.608602 
L 167.784581 76.753228 
L 167.872635 67.712429 
L 167.960689 74.434067 
L 168.048743 73.726526 
L 168.136796 74.65026 
L 168.22485 77.794886 
L 168.312904 72.272136 
L 168.400958 73.018985 
L 168.489012 73.765834 
L 168.577066 77.578693 
L 168.66512 74.669914 
L 168.753173 82.963864 
L 168.841227 82.275978 
L 168.929281 72.311444 
L 169.017335 73.018985 
L 169.105389 77.3625 
L 169.193443 71.898712 
L 169.36955 76.733574 
L 169.457604 72.075597 
L 169.545658 78.345195 
L 169.633712 76.772882 
L 169.80982 74.571644 
L 169.897873 75.338147 
L 169.985927 76.320842 
L 170.073981 75.868802 
L 170.162035 77.834194 
L 170.338143 74.001681 
L 170.426197 77.657308 
L 170.602304 74.001681 
L 170.690358 72.940369 
L 170.778412 75.279185 
L 170.866466 70.22813 
L 171.042574 75.691917 
L 171.130627 75.062992 
L 171.218681 77.657308 
L 171.306735 75.809841 
L 171.482843 70.12986 
L 171.570897 70.758785 
L 171.65895 70.621208 
L 171.747004 76.537035 
L 171.835058 73.824796 
L 171.923112 57.629972 
L 172.011166 74.55199 
L 172.09922 73.176216 
L 172.187274 76.183265 
L 172.275327 75.141608 
L 172.363381 75.279185 
L 172.451435 75.141608 
L 172.539489 81.78463 
L 172.715597 71.859404 
L 172.803651 73.726526 
L 172.891704 68.105507 
L 173.067812 77.755578 
L 173.24392 72.29179 
L 173.331974 73.156563 
L 173.420027 72.311444 
L 173.508081 74.394759 
L 173.684189 71.544942 
L 173.860297 74.768183 
L 173.948351 65.668422 
L 174.036404 76.261881 
L 174.124458 67.280043 
L 174.212512 75.711571 
L 174.38862 71.230479 
L 174.476674 77.559039 
L 174.564728 71.48598 
L 174.652781 74.591298 
L 174.740835 73.824796 
L 174.828889 72.920716 
L 174.916943 76.045688 
L 175.004997 71.918366 
L 175.181104 76.576343 
L 175.357212 71.446672 
L 175.445266 74.375105 
L 175.53332 72.881408 
L 175.709428 78.030733 
L 175.797481 72.606253 
L 175.885535 73.19587 
L 175.973589 72.861754 
L 176.061643 74.689568 
L 176.149697 82.295631 
L 176.325805 72.311444 
L 176.413858 73.471025 
L 176.501912 72.429368 
L 176.589966 75.082646 
L 176.67802 70.93567 
L 176.766074 78.52208 
L 176.942181 73.333448 
L 177.030235 78.934813 
L 177.118289 64.764342 
L 177.294397 79.563738 
L 177.382451 72.724176 
L 177.470505 75.121954 
L 177.558558 74.119604 
L 177.646612 79.327891 
L 177.82272 61.148022 
L 177.910774 78.561388 
L 177.998828 68.085853 
L 178.086882 77.794886 
L 178.174935 73.353102 
L 178.262989 76.674613 
L 178.351043 73.628256 
L 178.439097 39.037372 
L 178.527151 76.851498 
L 178.615205 70.346053 
L 178.791312 79.249275 
L 178.96742 73.274486 
L 179.055474 74.158912 
L 179.143528 77.224922 
L 179.319635 75.180915 
L 179.407689 83.926906 
L 179.583797 61.206984 
L 179.671851 77.185614 
L 179.759905 72.547291 
L 179.847959 72.645561 
L 179.936012 73.038639 
L 180.024066 76.320842 
L 180.11212 72.881408 
L 180.200174 75.691917 
L 180.288228 70.876709 
L 180.376282 71.93802 
L 180.464335 74.493029 
L 180.552389 72.409714 
L 180.728497 78.26658 
L 180.816551 74.139258 
L 180.904605 76.36015 
L 180.992659 75.082646 
L 181.080712 76.379804 
L 181.25682 45.11043 
L 181.432928 76.281534 
L 181.520982 77.460769 
L 181.609036 73.569295 
L 181.785143 79.327891 
L 181.873197 71.112556 
L 181.961251 78.600696 
L 182.049305 72.507983 
L 182.225412 75.1023 
L 182.313466 71.171517 
L 182.40152 74.886107 
L 182.577628 73.176216 
L 182.753736 69.284742 
L 183.017897 78.089694 
L 183.105951 77.401807 
L 183.194005 82.197362 
L 183.370113 72.920716 
L 183.458166 77.008729 
L 183.54622 75.259531 
L 183.634274 66.179424 
L 183.810382 74.866453 
L 183.898436 74.316143 
L 183.986489 75.55434 
L 184.162597 70.306745 
L 184.250651 73.058293 
L 184.338705 72.8421 
L 184.426759 73.412063 
L 184.514813 72.783138 
L 184.69092 75.90811 
L 184.955082 71.898712 
L 185.13119 76.045688 
L 185.219243 73.29414 
L 185.483405 76.478074 
L 185.659513 72.979677 
L 185.83562 76.36015 
L 185.923674 72.055943 
L 186.011728 72.881408 
L 186.099782 77.755578 
L 186.187836 72.999331 
L 186.27589 58.082012 
L 186.363943 74.866453 
L 186.451997 72.979677 
L 186.628105 78.07004 
L 186.716159 69.736782 
L 186.892267 85.617143 
L 187.068374 70.051244 
L 187.156428 74.257182 
L 187.244482 63.192029 
L 187.332536 76.930114 
L 187.596697 63.368914 
L 187.772805 75.45607 
L 187.948913 70.031591 
L 188.12502 73.726526 
L 188.213074 73.588949 
L 188.301128 74.55199 
L 188.389182 78.679312 
L 188.56529 72.724176 
L 188.653344 73.274486 
L 188.741397 75.357801 
L 188.829451 71.151864 
L 189.005559 77.303538 
L 189.093613 77.205268 
L 189.181667 68.734432 
L 189.26972 69.717128 
L 189.533882 73.844449 
L 189.621936 72.39006 
L 189.70999 72.763484 
L 189.886097 77.126653 
L 189.974151 73.844449 
L 190.062205 77.598347 
L 190.238313 73.864103 
L 190.414421 77.735924 
L 190.502474 74.532336 
L 190.590528 79.917508 
L 190.942744 73.19587 
L 191.030797 73.451371 
L 191.118851 74.021335 
L 191.206905 72.783138 
L 191.294959 68.537893 
L 191.383013 78.679312 
L 191.471067 71.702173 
L 191.559121 75.180915 
L 191.647174 75.1023 
L 191.735228 77.146307 
L 191.911336 75.436416 
L 191.99939 76.104649 
L 192.087444 74.453721 
L 192.175498 77.165961 
L 192.351605 69.874359 
L 192.439659 74.591298 
L 192.527713 74.493029 
L 192.615767 73.038639 
L 192.703821 64.548149 
L 192.791874 74.610952 
L 192.879928 72.783138 
L 192.967982 67.830352 
L 193.056036 72.802792 
L 193.14409 70.837401 
L 193.232144 78.011079 
L 193.320198 74.453721 
L 193.496305 77.873501 
L 193.672413 72.134559 
L 193.848521 82.570786 
L 194.112682 73.942719 
L 194.200736 76.261881 
L 194.28879 73.844449 
L 194.376844 77.028383 
L 194.552951 73.274486 
L 194.641005 79.013428 
L 194.905167 72.272136 
L 194.993221 73.235178 
L 195.081275 77.205268 
L 195.169328 74.276835 
L 195.257382 76.00638 
L 195.43349 70.326399 
L 195.521544 71.623557 
L 195.697652 76.320842 
L 195.785705 77.676962 
L 195.873759 76.124303 
L 195.961813 76.399458 
L 196.049867 77.087345 
L 196.225975 70.188822 
L 196.402082 76.104649 
L 196.754298 69.579551 
L 196.930405 77.224922 
L 197.018459 71.898712 
L 197.106513 76.399458 
L 197.194567 68.832702 
L 197.282621 81.430859 
L 197.458729 71.996982 
L 197.72289 74.709222 
L 197.810944 72.822446 
L 197.898998 74.55199 
L 197.987052 71.191171 
L 198.075105 76.419112 
L 198.163159 72.724176 
L 198.339267 78.011079 
L 198.427321 75.711571 
L 198.515375 76.949767 
L 198.603429 74.19822 
L 198.691482 76.301188 
L 198.86759 70.876709 
L 198.955644 76.949767 
L 199.043698 67.142466 
L 199.131752 74.434067 
L 199.219806 73.529987 
L 199.307859 77.480423 
L 199.483967 72.114905 
L 199.572021 75.632955 
L 199.660075 72.763484 
L 199.748129 76.084995 
L 199.836183 74.080296 
L 199.924236 74.630606 
L 200.01229 73.569295 
L 200.100344 70.817747 
L 200.276452 79.092044 
L 200.364506 74.571644 
L 200.452559 74.748529 
L 200.540613 72.331098 
L 200.716721 76.183265 
L 200.892829 79.386853 
L 201.15699 73.353102 
L 201.245044 72.527637 
L 201.421152 79.268929 
L 201.59726 71.879058 
L 201.773367 75.613301 
L 201.861421 74.257182 
L 201.949475 74.571644 
L 202.037529 73.765834 
L 202.213636 76.871152 
L 202.30169 76.635305 
L 202.389744 73.274486 
L 202.477798 73.982027 
L 202.565852 76.36015 
L 202.653906 75.672263 
L 202.74196 72.213175 
L 202.918067 79.52443 
L 203.094175 75.849148 
L 203.182229 75.809841 
L 203.270283 77.912809 
L 203.44639 75.495378 
L 203.534444 76.517381 
L 203.622498 73.667564 
L 203.798606 77.224922 
L 203.88666 73.136909 
L 203.974713 76.890806 
L 204.062767 71.721827 
L 204.150821 72.29179 
L 204.326929 76.930114 
L 204.503037 74.925415 
L 204.59109 78.738273 
L 204.679144 73.038639 
L 204.767198 76.635305 
L 204.943306 55.585965 
L 205.119414 77.598347 
L 205.207467 76.517381 
L 205.295521 82.629748 
L 205.471629 72.114905 
L 205.73579 75.731225 
L 205.823844 73.608602 
L 205.911898 77.618 
L 205.999952 74.807491 
L 206.088006 76.36015 
L 206.17606 75.023684 
L 206.264114 78.679312 
L 206.352167 73.392409 
L 206.440221 77.912809 
L 206.616329 72.999331 
L 206.704383 73.549641 
L 206.792437 79.662007 
L 206.880491 77.008729 
L 206.968544 78.423811 
L 207.056598 74.178566 
L 207.144652 75.416762 
L 207.232706 69.186472 
L 207.408814 78.246926 
L 207.584921 64.135417 
L 207.761029 76.261881 
L 207.849083 75.023684 
L 208.025191 76.576343 
L 208.201298 70.365707 
L 208.289352 77.26423 
L 208.377406 75.239877 
L 208.46546 68.675471 
L 208.641568 83.651751 
L 208.729621 74.984376 
L 208.817675 77.873501 
L 208.905729 60.971137 
L 209.081837 72.822446 
L 209.257944 77.3625 
L 209.345998 73.235178 
L 209.434052 77.696616 
L 209.522106 76.831844 
L 209.61016 76.694267 
L 209.786268 71.230479 
L 209.874321 77.971771 
L 209.962375 73.372756 
L 210.050429 75.691917 
L 210.138483 74.905761 
L 210.226537 76.497728 
L 210.314591 80.664357 
L 210.402645 74.807491 
L 210.490698 77.382154 
L 210.578752 74.19822 
L 210.666806 77.618 
L 210.75486 76.81219 
L 210.842914 75.082646 
L 210.930968 76.871152 
L 211.019021 75.534686 
L 211.107075 72.449022 
L 211.283183 77.421461 
L 211.371237 76.694267 
L 211.459291 73.864103 
L 211.635398 76.890806 
L 211.723452 73.74618 
L 211.811506 74.689568 
L 211.89956 78.286233 
L 211.987614 75.279185 
L 212.075668 77.283884 
L 212.339829 71.073248 
L 212.515937 82.23667 
L 212.692045 70.542592 
L 212.780098 75.515032 
L 212.868152 73.215524 
L 213.04426 77.657308 
L 213.132314 72.645561 
L 213.396475 76.438766 
L 213.484529 69.107857 
L 213.660637 75.141608 
L 213.748691 75.043338 
L 213.836745 78.738273 
L 213.924799 75.632955 
L 214.012852 78.502427 
L 214.18896 74.846799 
L 214.277014 77.441115 
L 214.541175 74.473375 
L 214.717283 77.873501 
L 214.981445 73.903411 
L 215.069499 74.827145 
L 215.157552 77.912809 
L 215.245606 74.55199 
L 215.33366 76.792536 
L 215.421714 73.19587 
L 215.509768 76.379804 
L 215.597822 74.866453 
L 215.685876 75.750879 
L 215.773929 77.893155 
L 215.950037 73.313794 
L 216.038091 77.657308 
L 216.126145 73.962373 
L 216.390306 84.103791 
L 216.566414 74.493029 
L 216.654468 75.927764 
L 216.742522 73.254832 
L 216.830576 77.323192 
L 216.918629 75.062992 
L 217.006683 77.755578 
L 217.358899 72.74383 
L 217.446953 68.302046 
L 217.62306 75.200569 
L 217.711114 71.309095 
L 217.887222 76.91046 
L 217.975276 77.244576 
L 218.063329 77.008729 
L 218.151383 64.882266 
L 218.239437 74.080296 
L 218.327491 72.684869 
L 218.415545 76.949767 
L 218.503599 74.276835 
L 218.591653 65.039497 
L 218.76776 76.104649 
L 218.855814 78.07004 
L 218.943868 72.8421 
L 219.119976 78.404157 
L 219.20803 74.001681 
L 219.296083 74.178566 
L 219.560245 77.71627 
L 219.648299 70.483631 
L 219.736353 77.146307 
L 219.824406 73.431717 
L 219.91246 75.200569 
L 220.000514 74.080296 
L 220.088568 74.217874 
L 220.176622 83.356943 
L 220.35273 77.696616 
L 220.528837 78.345195 
L 220.616891 79.092044 
L 220.704945 73.058293 
L 220.792999 79.897854 
L 220.881053 75.318493 
L 221.05716 79.622699 
L 221.321322 73.726526 
L 221.409376 58.21959 
L 221.49743 77.205268 
L 221.585483 71.83975 
L 221.937699 77.991425 
L 222.025753 75.298839 
L 222.113807 77.480423 
L 222.20186 76.871152 
L 222.289914 72.173867 
L 222.377968 76.949767 
L 222.466022 73.215524 
L 222.554076 76.497728 
L 222.730184 74.434067 
L 222.818237 78.050387 
L 222.994345 74.473375 
L 223.082399 75.377455 
L 223.170453 80.703665 
L 223.434614 71.328749 
L 223.698776 83.199711 
L 223.78683 78.325541 
L 223.874884 78.934813 
L 224.050991 75.338147 
L 224.139045 76.45842 
L 224.227099 76.281534 
L 224.403207 73.274486 
L 224.667368 78.62035 
L 224.755422 63.034798 
L 224.843476 75.55434 
L 224.93153 74.276835 
L 225.019584 72.606253 
L 225.107637 76.419112 
L 225.195691 76.202919 
L 225.283745 64.410572 
L 225.371799 76.026034 
L 225.459853 73.726526 
L 225.547907 72.684869 
L 225.724014 77.342846 
L 225.812068 73.077947 
L 226.07623 78.816889 
L 226.164284 74.709222 
L 226.252338 75.161262 
L 226.340391 76.713921 
L 226.604553 72.429368 
L 226.692607 76.399458 
L 226.780661 73.864103 
L 226.868714 75.55434 
L 226.956768 74.493029 
L 227.044822 78.286233 
L 227.22093 76.517381 
L 227.308984 78.816889 
L 227.397038 74.532336 
L 227.485091 78.030733 
L 227.573145 46.348627 
L 227.837307 77.224922 
L 227.925361 67.122812 
L 228.013415 72.665215 
L 228.101468 71.112556 
L 228.189522 75.534686 
L 228.277576 74.355451 
L 228.36563 77.224922 
L 228.541738 73.785488 
L 228.629791 78.030733 
L 228.717845 76.615651 
L 228.805899 78.227272 
L 228.893953 74.217874 
L 228.982007 78.207618 
L 229.070061 72.547291 
L 229.158115 77.500077 
L 229.334222 71.761135 
L 229.598384 74.964722 
L 229.686438 77.893155 
L 229.862545 74.276835 
L 229.950599 77.067691 
L 230.126707 70.287091 
L 230.214761 72.606253 
L 230.302815 60.184981 
L 230.390868 75.082646 
L 230.478922 71.643211 
L 230.566976 76.615651 
L 230.65503 74.532336 
L 230.743084 75.298839 
L 230.831138 73.333448 
L 231.007245 75.849148 
L 231.095299 75.377455 
L 231.271407 72.861754 
L 231.447515 83.199711 
L 231.623622 73.942719 
L 231.79973 77.165961 
L 231.975838 71.525288 
L 232.151946 75.416762 
L 232.239999 75.200569 
L 232.328053 70.699824 
L 232.416107 71.643211 
L 232.504161 78.423811 
L 232.592215 77.578693 
L 232.680269 74.945068 
L 232.768322 76.222573 
L 232.856376 72.213175 
L 233.032484 78.207618 
L 233.120538 79.308237 
L 233.208592 75.200569 
L 233.296646 76.81219 
L 233.384699 75.947418 
L 233.472753 78.246926 
L 233.560807 74.473375 
L 233.648861 79.406506 
L 233.736915 72.429368 
L 233.824969 77.559039 
L 233.913023 65.845307 
L 234.001076 78.62035 
L 234.08913 78.148656 
L 234.177184 76.45842 
L 234.265238 77.893155 
L 234.353292 77.578693 
L 234.441346 76.654959 
L 234.529399 74.158912 
L 234.617453 77.323192 
L 234.705507 72.881408 
L 234.793561 77.087345 
L 234.881615 60.931829 
L 234.969669 78.364849 
L 235.057723 75.279185 
L 235.145776 73.903411 
L 235.321884 80.546433 
L 235.409938 80.114047 
L 235.497992 75.180915 
L 235.586046 77.873501 
L 235.6741 77.735924 
L 235.762153 75.986726 
L 235.850207 77.539385 
L 235.938261 76.124303 
L 236.026315 77.853847 
L 236.114369 77.834194 
L 236.202423 78.97412 
L 236.37853 68.655817 
L 236.466584 78.364849 
L 236.554638 75.967072 
L 236.642692 80.605395 
L 236.730746 74.748529 
L 236.8188 76.183265 
L 236.906853 76.438766 
L 237.082961 73.372756 
L 237.171015 76.124303 
L 237.259069 75.632955 
L 237.347123 75.927764 
L 237.435177 78.246926 
L 237.52323 77.008729 
L 237.611284 81.037781 
L 237.699338 74.945068 
L 237.787392 76.379804 
L 237.875446 77.618 
L 237.9635 77.401807 
L 238.051553 77.755578 
L 238.139607 75.927764 
L 238.227661 77.952117 
L 238.315715 73.942719 
L 238.403769 63.761993 
L 238.491823 78.679312 
L 238.579877 73.74618 
L 238.66793 73.942719 
L 238.844038 83.160404 
L 238.932092 81.823938 
L 239.020146 76.989075 
L 239.1082 77.342846 
L 239.284307 71.564596 
L 239.372361 78.895505 
L 239.460415 73.018985 
L 239.636523 76.792536 
L 239.724577 77.735924 
L 239.81263 74.19822 
L 239.900684 74.630606 
L 239.988738 80.251625 
L 240.076792 75.082646 
L 240.2529 79.013428 
L 240.340954 76.851498 
L 240.429007 78.836543 
L 240.517061 78.305887 
L 240.605115 75.652609 
L 240.693169 76.45842 
L 240.869277 69.854705 
L 240.957331 79.917508 
L 241.045384 74.984376 
L 241.133438 77.539385 
L 241.309546 73.824796 
L 241.3976 76.753228 
L 241.485654 75.279185 
L 241.573707 76.81219 
L 241.749815 73.058293 
L 241.925923 78.934813 
L 242.190084 76.143957 
L 242.278138 80.33024 
L 242.366192 78.757927 
L 242.454246 74.453721 
L 242.894515 82.000823 
L 242.982569 76.281534 
L 243.158677 79.249275 
L 243.422838 74.257182 
L 243.510892 79.465468 
L 243.598946 76.399458 
L 243.687 78.738273 
L 243.775054 77.71627 
L 243.863108 72.29179 
L 243.951161 73.136909 
L 244.127269 78.541734 
L 244.303377 76.36015 
L 244.391431 77.952117 
L 244.479485 77.637654 
L 244.567538 77.912809 
L 244.655592 77.755578 
L 244.8317 76.517381 
L 244.919754 66.51354 
L 245.095861 75.731225 
L 245.183915 75.927764 
L 245.360023 77.067691 
L 245.448077 71.505634 
L 245.536131 78.541734 
L 245.712238 73.74618 
L 245.888346 77.794886 
L 245.9764 76.674613 
L 246.064454 72.48833 
L 246.152508 78.993774 
L 246.240562 77.696616 
L 246.328615 79.033082 
L 246.504723 71.564596 
L 246.592777 78.030733 
L 246.680831 77.559039 
L 246.768885 75.691917 
L 246.944992 80.192663 
L 247.033046 81.941861 
L 247.1211 76.949767 
L 247.209154 78.227272 
L 247.297208 74.060642 
L 247.385262 74.610952 
L 247.473315 73.569295 
L 247.649423 77.696616 
L 247.737477 78.443465 
L 247.913585 73.962373 
L 248.177746 82.374247 
L 248.2658 73.923065 
L 248.441908 77.224922 
L 248.529962 76.930114 
L 248.618015 77.71627 
L 248.706069 74.748529 
L 248.794123 62.366565 
L 248.882177 76.143957 
L 248.970231 73.64791 
L 249.058285 77.421461 
L 249.234392 74.316143 
L 249.322446 78.364849 
L 249.4105 77.637654 
L 249.586608 76.753228 
L 249.762716 77.441115 
L 249.850769 74.728875 
L 249.938823 75.888456 
L 250.026877 70.562246 
L 250.291039 77.696616 
L 250.467146 75.515032 
L 250.5552 76.537035 
L 250.643254 79.033082 
L 250.819362 73.254832 
L 250.907416 80.703665 
L 250.995469 67.889314 
L 251.083523 76.851498 
L 251.171577 75.043338 
L 251.259631 78.129002 
L 251.347685 75.770533 
L 251.435739 76.124303 
L 251.523793 74.394759 
L 251.6999 77.952117 
L 251.787954 74.610952 
L 251.876008 78.97412 
L 251.964062 75.829495 
L 252.052116 77.971771 
L 252.140169 74.866453 
L 252.228223 78.836543 
L 252.404331 74.434067 
L 252.492385 77.323192 
L 252.580439 75.652609 
L 252.668493 76.871152 
L 252.756546 73.844449 
L 253.020708 79.111698 
L 253.108762 72.783138 
L 253.196816 74.394759 
L 253.372923 77.480423 
L 253.460977 65.511191 
L 253.637085 80.192663 
L 253.813193 74.787837 
L 253.901246 76.084995 
L 253.9893 74.414413 
L 254.077354 76.890806 
L 254.165408 75.475724 
L 254.341516 78.050387 
L 254.42957 80.546433 
L 254.605677 74.689568 
L 254.693731 76.949767 
L 254.781785 74.335797 
L 254.869839 78.954466 
L 254.957893 73.785488 
L 255.045947 77.853847 
L 255.134 75.986726 
L 255.222054 78.207618 
L 255.310108 77.676962 
L 255.398162 74.591298 
L 255.486216 75.750879 
L 255.57427 70.857055 
L 255.662323 54.190538 
L 255.838431 75.55434 
L 255.926485 79.229621 
L 256.014539 74.630606 
L 256.102593 75.632955 
L 256.190647 78.148656 
L 256.2787 76.379804 
L 256.366754 78.227272 
L 256.542862 73.117255 
L 256.630916 77.146307 
L 256.71897 74.394759 
L 256.807024 77.775232 
L 256.983131 75.318493 
L 257.071185 75.672263 
L 257.247293 77.539385 
L 257.335347 78.246926 
L 257.4234 74.119604 
L 257.599508 80.310586 
L 257.687562 78.581042 
L 257.86367 63.860262 
L 258.039777 77.932463 
L 258.127831 78.227272 
L 258.215885 74.296489 
L 258.303939 74.984376 
L 258.480047 83.04248 
L 258.744208 73.29414 
L 258.832262 76.478074 
L 258.920316 74.512682 
L 259.096424 79.603046 
L 259.184477 73.097601 
L 259.272531 79.327891 
L 259.360585 77.952117 
L 259.448639 80.467818 
L 259.536693 75.849148 
L 259.624747 79.013428 
L 259.888908 75.200569 
L 259.976962 73.156563 
L 260.065016 66.434925 
L 260.15307 80.133701 
L 260.329178 74.984376 
L 260.417231 72.468676 
L 260.593339 77.735924 
L 260.681393 75.672263 
L 260.769447 77.735924 
L 260.857501 77.165961 
L 260.945554 73.274486 
L 261.033608 76.969421 
L 261.121662 76.104649 
L 261.209716 74.709222 
L 261.29777 71.151864 
L 261.385824 76.772882 
L 261.473878 75.731225 
L 261.561931 63.133068 
L 261.738039 79.956816 
L 261.826093 75.55434 
L 262.002201 80.094393 
L 262.266362 75.495378 
L 262.354416 82.551132 
L 262.44247 81.627398 
L 262.530524 69.422319 
L 262.706632 75.475724 
L 262.794685 75.632955 
L 262.882739 59.556056 
L 263.058847 76.615651 
L 263.146901 73.451371 
L 263.234955 76.733574 
L 263.323008 76.478074 
L 263.411062 77.578693 
L 263.499116 74.375105 
L 263.675224 75.397108 
L 263.763278 75.318493 
L 263.851332 72.409714 
L 263.939385 78.600696 
L 264.027439 76.517381 
L 264.115493 79.485122 
L 264.203547 65.275344 
L 264.379655 78.207618 
L 264.467709 73.431717 
L 264.643816 77.676962 
L 264.73187 73.136909 
L 264.819924 79.013428 
L 264.907978 74.866453 
L 264.996032 77.834194 
L 265.084085 76.753228 
L 265.172139 59.772249 
L 265.260193 79.858546 
L 265.348247 76.930114 
L 265.436301 76.497728 
L 265.524355 76.753228 
L 265.612409 79.42616 
L 265.964624 76.242227 
L 266.052678 80.860896 
L 266.228786 74.001681 
L 266.404893 84.575485 
L 266.669055 73.274486 
L 266.757109 80.860896 
L 266.933216 72.566945 
L 267.109324 78.030733 
L 267.197378 78.129002 
L 267.285432 82.158054 
L 267.373486 74.846799 
L 267.461539 80.762626 
L 267.549593 75.318493 
L 267.637647 77.539385 
L 267.725701 75.397108 
L 267.813755 77.460769 
L 267.901809 73.431717 
L 268.077916 78.915159 
L 268.254024 74.846799 
L 268.518186 78.541734 
L 268.606239 67.692775 
L 268.782347 78.148656 
L 268.870401 77.952117 
L 268.958455 78.227272 
L 269.046509 79.799585 
L 269.31067 73.588949 
L 269.486778 79.799585 
L 269.574832 76.045688 
L 269.662886 78.325541 
L 269.75094 76.202919 
L 269.927047 80.408856 
L 270.015101 80.212317 
L 270.103155 72.114905 
L 270.279263 77.598347 
L 270.367316 78.600696 
L 270.45537 78.384503 
L 270.631478 73.235178 
L 270.807586 76.183265 
L 270.89564 74.119604 
L 271.071747 80.251625 
L 271.159801 78.050387 
L 271.247855 78.089694 
L 271.335909 78.541734 
L 271.423963 78.187964 
L 271.512017 76.281534 
L 271.60007 79.42616 
L 271.688124 77.853847 
L 271.776178 77.991425 
L 271.864232 77.578693 
L 271.952286 75.1023 
L 272.128393 79.229621 
L 272.216447 67.456928 
L 272.304501 77.441115 
L 272.392555 76.871152 
L 272.568663 79.327891 
L 272.656717 75.515032 
L 272.74477 78.71862 
L 272.920878 77.303538 
L 273.008932 73.844449 
L 273.096986 74.434067 
L 273.18504 77.618 
L 273.273094 76.084995 
L 273.361147 78.97412 
L 273.449201 76.949767 
L 273.537255 77.048037 
L 273.625309 77.794886 
L 273.801417 76.851498 
L 273.88947 79.17066 
L 273.977524 76.831844 
L 274.065578 77.696616 
L 274.241686 81.391552 
L 274.593901 74.355451 
L 274.681955 74.787837 
L 274.858063 78.325541 
L 274.946117 37.97606 
L 275.122224 78.993774 
L 275.298332 71.053594 
L 275.386386 77.401807 
L 275.562494 73.942719 
L 275.650547 73.903411 
L 275.738601 77.421461 
L 275.826655 76.890806 
L 275.914709 75.161262 
L 276.002763 75.90811 
L 276.090817 78.030733 
L 276.178871 77.382154 
L 276.266924 77.539385 
L 276.354978 77.735924 
L 276.531086 77.146307 
L 276.61914 74.158912 
L 276.707194 75.1023 
L 276.795248 71.682519 
L 276.883301 78.600696 
L 276.971355 78.325541 
L 277.147463 75.691917 
L 277.235517 79.386853 
L 277.323571 73.883757 
L 277.411624 76.556689 
L 277.499678 75.180915 
L 277.675786 78.836543 
L 277.76384 71.250133 
L 277.851894 78.52208 
L 277.939948 77.657308 
L 278.028001 78.26658 
L 278.116055 77.185614 
L 278.292163 83.062134 
L 278.468271 78.423811 
L 278.644378 76.281534 
L 278.732432 77.834194 
L 278.820486 77.421461 
L 278.90854 79.092044 
L 278.996594 77.578693 
L 279.260755 80.408856 
L 279.348809 77.932463 
L 279.436863 70.503284 
L 279.612971 80.173009 
L 279.877132 76.615651 
L 279.965186 78.26658 
L 280.05324 74.709222 
L 280.141294 76.949767 
L 280.229348 74.591298 
L 280.317402 75.023684 
L 280.405455 75.613301 
L 280.581563 78.227272 
L 280.669617 76.124303 
L 280.757671 78.934813 
L 280.845725 77.126653 
L 280.933778 72.468676 
L 281.021832 59.0254 
L 281.19794 78.148656 
L 281.285994 78.856197 
L 281.374048 77.500077 
L 281.462102 77.755578 
L 281.550155 77.834194 
L 281.638209 76.733574 
L 281.814317 79.897854 
L 281.902371 78.561388 
L 281.990425 80.074739 
L 282.078479 76.595997 
L 282.166532 78.71862 
L 282.254586 77.3625 
L 282.518748 80.959165 
L 282.606802 78.71862 
L 282.694855 64.587457 
L 282.870963 78.404157 
L 282.959017 75.652609 
L 283.047071 76.851498 
L 283.135125 76.281534 
L 283.223179 79.406506 
L 283.399286 75.691917 
L 283.48734 76.399458 
L 283.663448 78.482773 
L 283.751502 77.932463 
L 283.839556 76.045688 
L 283.927609 77.991425 
L 284.015663 77.676962 
L 284.103717 77.519731 
L 284.191771 77.598347 
L 284.367879 75.397108 
L 284.455932 76.163611 
L 284.543986 76.772882 
L 284.63204 69.22578 
L 284.720094 78.109348 
L 284.808148 77.71627 
L 284.896202 75.868802 
L 285.072309 81.981169 
L 285.160363 78.777581 
L 285.248417 80.507126 
L 285.336471 80.094393 
L 285.424525 77.323192 
L 285.512579 78.836543 
L 285.600633 76.930114 
L 285.864794 80.566087 
L 285.952848 74.748529 
L 286.040902 75.515032 
L 286.128956 79.563738 
L 286.217009 75.534686 
L 286.393117 79.603046 
L 286.481171 78.561388 
L 286.569225 80.605395 
L 286.657279 77.578693 
L 286.745333 79.858546 
L 286.833386 76.124303 
L 286.92144 76.674613 
L 287.185602 80.114047 
L 287.36171 77.676962 
L 287.449763 78.463119 
L 287.537817 81.470167 
L 287.625871 77.932463 
L 287.713925 78.895505 
L 287.801979 76.104649 
L 287.890033 79.760277 
L 287.978086 79.190313 
L 288.06614 80.094393 
L 288.242248 77.126653 
L 288.418356 79.17066 
L 288.50641 78.856197 
L 288.594463 81.273628 
L 288.770571 78.305887 
L 288.858625 84.04483 
L 289.122787 76.183265 
L 289.298894 79.209967 
L 289.386948 78.797235 
L 289.475002 80.015778 
L 289.563056 76.556689 
L 289.739163 79.308237 
L 289.827217 79.052736 
L 289.915271 79.996124 
L 290.091379 76.065341 
L 290.35554 80.408856 
L 290.531648 77.224922 
L 290.619702 82.256324 
L 290.707756 76.635305 
L 290.79581 79.052736 
L 290.883864 78.640004 
L 290.971917 80.153355 
L 291.059971 78.777581 
L 291.148025 75.397108 
L 291.324133 79.681661 
L 291.412187 76.183265 
L 291.50024 80.015778 
L 291.676348 76.261881 
L 291.852456 79.720969 
L 292.028564 78.423811 
L 292.116617 79.701315 
L 292.204671 76.930114 
L 292.292725 79.740623 
L 292.468833 77.401807 
L 292.732994 82.040131 
L 292.909102 77.3625 
L 293.08521 79.288583 
L 293.261317 76.831844 
L 293.349371 77.676962 
L 293.437425 81.155705 
L 293.701587 77.441115 
L 293.877694 78.463119 
L 294.053802 77.165961 
L 294.141856 80.644703 
L 294.22991 79.97647 
L 294.406018 79.07239 
L 294.494071 78.698966 
L 294.582125 79.917508 
L 294.670179 77.637654 
L 294.846287 78.600696 
L 294.934341 75.55434 
L 295.022395 79.092044 
L 295.110448 78.62035 
L 295.198502 77.126653 
L 295.286556 79.268929 
L 295.37461 75.750879 
L 295.550718 78.030733 
L 295.638771 82.413555 
L 295.814879 77.008729 
L 295.902933 75.023684 
L 296.079041 81.647052 
L 296.255148 77.519731 
L 296.343202 80.153355 
L 296.51931 77.755578 
L 296.607364 80.42851 
L 296.695418 77.578693 
L 296.959579 80.389202 
L 297.047633 83.396251 
L 297.223741 78.050387 
L 297.311795 78.836543 
L 297.575956 76.00638 
L 297.752064 80.703665 
L 298.016225 75.888456 
L 298.280387 81.371898 
L 298.456495 77.676962 
L 298.544549 66.847657 
L 298.632602 78.600696 
L 298.720656 78.443465 
L 298.80871 81.018127 
L 298.896764 77.205268 
L 299.072872 79.151006 
L 299.160925 77.480423 
L 299.248979 78.757927 
L 299.337033 77.421461 
L 299.425087 78.325541 
L 299.513141 81.155705 
L 299.601195 78.227272 
L 299.689249 79.209967 
L 299.777302 75.790187 
L 299.95341 78.993774 
L 300.041464 81.175359 
L 300.129518 76.45842 
L 300.217572 78.541734 
L 300.305626 67.476582 
L 300.393679 79.52443 
L 300.481733 77.932463 
L 300.569787 77.637654 
L 300.657841 78.757927 
L 300.833949 76.753228 
L 301.010056 80.035432 
L 301.186164 77.519731 
L 301.362272 82.511825 
L 301.626433 75.888456 
L 301.714487 82.1384 
L 301.802541 75.573994 
L 301.978649 79.386853 
L 302.066703 78.011079 
L 302.154756 78.502427 
L 302.330864 75.90811 
L 302.506972 78.011079 
L 302.595026 78.305887 
L 302.771133 80.801934 
L 302.947241 78.07004 
L 303.035295 78.777581 
L 303.123349 80.546433 
L 303.38751 76.615651 
L 303.475564 79.8782 
L 303.563618 67.850006 
L 303.651672 80.133701 
L 303.739726 78.71862 
L 303.82778 78.345195 
L 303.915833 78.561388 
L 304.003887 78.187964 
L 304.091941 78.954466 
L 304.179995 81.352244 
L 304.268049 78.26658 
L 304.53221 81.33259 
L 304.708318 77.303538 
L 304.796372 77.755578 
L 304.884426 80.42851 
L 304.97248 78.541734 
L 305.060533 80.644703 
L 305.148587 76.261881 
L 305.236641 79.406506 
L 305.324695 77.106999 
L 305.412749 78.698966 
L 305.500803 77.028383 
L 305.67691 83.573136 
L 305.853018 78.463119 
L 305.941072 80.467818 
L 306.11718 58.946784 
L 306.205233 79.52443 
L 306.293287 77.185614 
L 306.381341 82.649402 
L 306.469395 76.694267 
L 306.557449 79.603046 
L 306.733557 77.480423 
L 306.909664 78.659658 
L 306.997718 78.679312 
L 307.085772 79.347545 
L 307.173826 82.020477 
L 307.349934 78.129002 
L 307.437987 78.384503 
L 307.526041 77.205268 
L 307.614095 81.489821 
L 307.790203 78.286233 
L 307.878257 81.155705 
L 307.96631 79.308237 
L 308.054364 80.585741 
L 308.230472 78.875851 
L 308.40658 79.819239 
L 308.494634 75.023684 
L 308.582687 80.094393 
L 308.670741 76.576343 
L 308.934903 81.175359 
L 309.111011 78.148656 
L 309.199064 78.502427 
L 309.287118 81.411205 
L 309.375172 55.920082 
L 309.55128 82.256324 
L 309.639334 82.511825 
L 309.727387 78.561388 
L 309.815441 80.212317 
L 309.991549 77.598347 
L 310.079603 80.959165 
L 310.167657 77.893155 
L 310.343764 80.762626 
L 310.519872 77.087345 
L 310.607926 78.246926 
L 310.69598 81.391552 
L 310.872088 78.030733 
L 310.960141 79.799585 
L 311.048195 77.971771 
L 311.136249 78.207618 
L 311.224303 82.334939 
L 311.312357 74.886107 
L 311.400411 79.720969 
L 311.488464 78.915159 
L 311.576518 78.011079 
L 311.752626 79.740623 
L 311.84068 76.930114 
L 311.928734 68.87201 
L 312.016788 79.544084 
L 312.104841 78.246926 
L 312.192895 80.173009 
L 312.280949 77.952117 
L 312.369003 78.089694 
L 312.457057 78.993774 
L 312.545111 78.404157 
L 312.633165 68.911318 
L 312.721218 78.993774 
L 312.809272 78.109348 
L 312.897326 72.606253 
L 312.98538 81.823938 
L 313.161488 77.539385 
L 313.249541 78.404157 
L 313.337595 80.723319 
L 313.425649 78.797235 
L 313.513703 80.114047 
L 313.601757 76.674613 
L 313.865918 81.804284 
L 314.042026 79.111698 
L 314.13008 81.312936 
L 314.218134 78.011079 
L 314.306188 78.856197 
L 314.394242 78.62035 
L 314.482295 80.841242 
L 314.658403 78.738273 
L 314.746457 80.978819 
L 314.834511 80.153355 
L 314.922565 77.696616 
L 315.010618 80.349894 
L 315.098672 78.777581 
L 315.186726 78.895505 
L 315.27478 79.662007 
L 315.362834 78.856197 
L 315.450888 83.101442 
L 315.538942 80.959165 
L 315.626995 76.00638 
L 315.715049 79.07239 
L 315.803103 78.16831 
L 315.891157 80.919858 
L 316.067265 79.013428 
L 316.155319 81.33259 
L 316.331426 77.657308 
L 316.507534 80.310586 
L 316.595588 79.327891 
L 316.683642 77.048037 
L 316.771695 80.88055 
L 316.859749 78.325541 
L 316.947803 78.364849 
L 317.035857 81.273628 
L 317.123911 76.851498 
L 317.211965 79.583392 
L 317.300019 78.030733 
L 317.388072 78.109348 
L 317.476126 81.214666 
L 317.56418 78.757927 
L 317.652234 79.367199 
L 317.740288 79.07239 
L 317.828342 79.17066 
L 318.004449 75.888456 
L 318.092503 79.268929 
L 318.268611 76.438766 
L 318.356665 81.096743 
L 318.444719 80.114047 
L 318.532772 82.492171 
L 318.620826 79.347545 
L 318.70888 81.745322 
L 318.796934 79.052736 
L 318.884988 79.07239 
L 318.973042 80.290932 
L 319.061096 77.382154 
L 319.149149 80.742972 
L 319.325257 78.07004 
L 319.413311 81.018127 
L 319.501365 78.030733 
L 319.589419 82.059785 
L 319.765526 78.679312 
L 319.85358 78.895505 
L 319.941634 79.42616 
L 320.029688 81.941861 
L 320.205796 77.087345 
L 320.293849 78.915159 
L 320.381903 78.423811 
L 320.469957 79.720969 
L 320.558011 79.052736 
L 320.646065 77.421461 
L 320.734119 78.109348 
L 320.822173 80.546433 
L 320.910226 78.148656 
L 320.99828 81.863245 
L 321.174388 76.163611 
L 321.350496 80.467818 
L 321.43855 78.482773 
L 321.526603 78.62035 
L 321.614657 80.448164 
L 321.702711 67.692775 
L 321.878819 78.26658 
L 321.966873 82.040131 
L 322.054926 42.791269 
L 322.231034 79.681661 
L 322.319088 80.42851 
L 322.495196 74.434067 
L 322.671303 80.998473 
L 322.847411 79.504776 
L 322.935465 81.706014 
L 323.111573 78.502427 
L 323.199627 79.52443 
L 323.28768 78.659658 
L 323.375734 79.131352 
L 323.463788 68.911318 
L 323.551842 80.369548 
L 323.639896 78.030733 
L 323.72795 78.71862 
L 323.816003 75.888456 
L 323.904057 81.902553 
L 323.992111 78.856197 
L 324.080165 69.186472 
L 324.168219 78.187964 
L 324.256273 77.126653 
L 324.344327 82.197362 
L 324.520434 78.109348 
L 324.608488 79.799585 
L 324.784596 77.578693 
L 324.960704 81.450513 
L 325.048757 76.340496 
L 325.136811 78.030733 
L 325.312919 77.205268 
L 325.489027 79.622699 
L 325.57708 63.133068 
L 325.665134 80.290932 
L 325.753188 78.227272 
L 325.929296 79.740623 
L 326.01735 78.836543 
L 326.105404 79.386853 
L 326.281511 77.952117 
L 326.369565 79.485122 
L 326.457619 78.089694 
L 326.633727 79.406506 
L 326.721781 82.256324 
L 326.809834 81.902553 
L 326.985942 78.109348 
L 327.16205 79.819239 
L 327.250104 77.028383 
L 327.514265 80.271279 
L 327.690373 77.067691 
L 327.778427 77.106999 
L 327.866481 82.865595 
L 327.954534 77.696616 
L 328.042588 78.482773 
L 328.130642 78.561388 
L 328.218696 77.71627 
L 328.30675 81.78463 
L 328.394804 78.384503 
L 328.482858 78.482773 
L 328.570911 82.23667 
L 328.658965 77.834194 
L 328.747019 78.836543 
L 328.923127 77.067691 
L 329.011181 81.470167 
L 329.099235 75.967072 
L 329.187288 81.961515 
L 329.363396 78.71862 
L 329.45145 80.801934 
L 329.539504 77.500077 
L 329.627558 78.246926 
L 329.715611 77.519731 
L 329.979773 79.779931 
L 330.155881 77.539385 
L 330.331988 80.723319 
L 330.420042 66.454579 
L 330.508096 79.052736 
L 330.59615 68.243085 
L 330.772258 81.037781 
L 330.860312 76.851498 
L 331.212527 82.629748 
L 331.300581 69.952975 
L 331.388635 72.232829 
L 331.476688 61.757294 
L 331.652796 80.487472 
L 331.828904 77.559039 
L 331.916958 79.406506 
L 332.005012 77.971771 
L 332.093065 80.664357 
L 332.181119 77.794886 
L 332.269173 79.17066 
L 332.357227 77.794886 
L 332.445281 81.23432 
L 332.533335 78.875851 
L 332.621389 67.280043 
L 332.797496 80.684011 
L 332.88555 68.026892 
L 333.061658 80.015778 
L 333.149712 77.873501 
L 333.237765 78.698966 
L 333.325819 81.116397 
L 333.413873 76.438766 
L 333.501927 76.635305 
L 333.766089 81.33259 
L 333.942196 78.463119 
L 334.03025 79.544084 
L 334.206358 79.131352 
L 334.294412 79.07239 
L 334.382466 82.079438 
L 334.558573 76.792536 
L 334.646627 81.922207 
L 334.734681 79.092044 
L 334.822735 79.838893 
L 334.910789 78.207618 
L 334.998842 79.97647 
L 335.086896 79.406506 
L 335.17495 77.755578 
L 335.439112 78.856197 
L 335.703273 82.531478 
L 335.879381 78.26658 
L 335.967435 77.893155 
L 336.055489 81.68636 
L 336.231596 76.143957 
L 336.407704 79.858546 
L 336.495758 75.161262 
L 336.583812 78.97412 
L 336.671866 76.261881 
L 336.847973 80.349894 
L 336.936027 79.838893 
L 337.112135 78.698966 
L 337.288243 80.173009 
L 337.552404 77.71627 
L 337.640458 78.62035 
L 337.728512 78.16831 
L 337.816566 81.902553 
L 337.90462 76.851498 
L 337.992673 77.676962 
L 338.080727 81.548783 
L 338.168781 78.325541 
L 338.256835 79.229621 
L 338.432943 76.615651 
L 338.697104 80.762626 
L 338.785158 69.658166 
L 338.961266 78.954466 
L 339.04932 78.502427 
L 339.137373 82.177708 
L 339.225427 68.930971 
L 339.401535 78.404157 
L 339.489589 79.033082 
L 339.577643 78.187964 
L 339.75375 79.681661 
L 339.841804 77.755578 
L 339.929858 78.62035 
L 340.017912 83.710713 
L 340.370127 77.775232 
L 340.458181 78.679312 
L 340.546235 78.443465 
L 340.634289 76.320842 
L 340.722343 77.008729 
L 340.810397 79.622699 
L 340.89845 67.771391 
L 340.986504 81.548783 
L 341.074558 77.146307 
L 341.162612 80.585741 
L 341.33872 78.915159 
L 341.426774 79.897854 
L 341.514827 79.445814 
L 341.602881 79.779931 
L 341.690935 80.998473 
L 341.778989 79.386853 
L 341.867043 71.171517 
L 342.04315 81.902553 
L 342.131204 79.485122 
L 342.219258 79.819239 
L 342.307312 80.959165 
L 342.395366 78.993774 
L 342.571474 80.723319 
L 342.659527 80.860896 
L 342.747581 79.386853 
L 342.835635 81.214666 
L 342.923689 78.581042 
L 343.011743 80.369548 
L 343.099797 79.858546 
L 343.187851 82.433209 
L 343.452012 78.443465 
L 343.540066 69.441973 
L 343.62812 81.175359 
L 343.716174 79.8782 
L 343.804227 80.526779 
L 343.892281 79.544084 
L 343.980335 83.867944 
L 344.068389 80.349894 
L 344.156443 80.860896 
L 344.244497 78.364849 
L 344.332551 80.821588 
L 344.420604 80.664357 
L 344.508658 81.155705 
L 344.596712 78.227272 
L 344.684766 80.959165 
L 344.77282 79.52443 
L 344.860874 80.742972 
L 344.948928 79.858546 
L 345.036981 80.821588 
L 345.213089 79.111698 
L 345.301143 81.352244 
L 345.389197 81.136051 
L 345.477251 81.823938 
L 345.741412 78.71862 
L 345.91752 80.919858 
L 346.005574 80.585741 
L 346.093628 79.249275 
L 346.181681 82.354593 
L 346.357789 79.367199 
L 346.445843 79.740623 
L 346.533897 81.745322 
L 346.710005 79.701315 
L 346.798058 80.841242 
L 346.886112 79.111698 
L 347.06222 82.472517 
L 347.150274 79.07239 
L 347.238328 80.271279 
L 347.326381 79.917508 
L 347.414435 68.302046 
L 347.502489 80.271279 
L 347.590543 80.153355 
L 347.678597 70.876709 
L 347.854705 79.760277 
L 348.030812 82.68871 
L 348.118866 79.367199 
L 348.20692 80.605395 
L 348.294974 78.97412 
L 348.647189 83.415904 
L 348.735243 78.129002 
L 348.823297 81.863245 
L 348.999405 79.740623 
L 349.087458 81.273628 
L 349.175512 80.605395 
L 349.263566 78.777581 
L 349.439674 81.077089 
L 349.615782 79.917508 
L 349.703835 81.391552 
L 349.791889 78.286233 
L 349.967997 80.467818 
L 350.056051 79.465468 
L 350.144105 81.293282 
L 350.232159 79.406506 
L 350.320212 81.175359 
L 350.408266 78.993774 
L 350.49632 79.07239 
L 350.672428 82.354593 
L 350.760482 80.290932 
L 350.848535 71.564596 
L 351.024643 79.151006 
L 351.112697 81.293282 
L 351.200751 80.959165 
L 351.288805 81.430859 
L 351.376859 77.382154 
L 351.464912 81.607745 
L 351.552966 79.209967 
L 351.64102 79.97647 
L 351.729074 81.764976 
L 351.905182 79.642353 
L 351.993236 79.504776 
L 352.081289 82.629748 
L 352.169343 78.443465 
L 352.433505 81.450513 
L 352.521559 80.055086 
L 352.609612 81.175359 
L 352.697666 77.952117 
L 352.78572 81.68636 
L 352.873774 79.190313 
L 352.961828 82.334939 
L 353.137936 79.013428 
L 353.314043 83.415904 
L 353.402097 80.035432 
L 353.490151 81.509475 
L 353.578205 79.740623 
L 353.842366 81.941861 
L 353.93042 53.443689 
L 354.106528 80.939512 
L 354.194582 79.092044 
L 354.282636 80.644703 
L 354.370689 80.114047 
L 354.458743 81.607745 
L 354.546797 79.720969 
L 354.634851 80.487472 
L 354.722905 78.816889 
L 354.899013 80.369548 
L 354.987066 79.268929 
L 355.07512 80.801934 
L 355.163174 79.603046 
L 355.251228 68.950625 
L 355.339282 81.391552 
L 355.427336 78.993774 
L 355.603443 81.607745 
L 355.779551 79.779931 
L 355.867605 79.858546 
L 356.043713 80.978819 
L 356.131766 69.22578 
L 356.21982 81.764976 
L 356.307874 78.364849 
L 356.395928 80.762626 
L 356.483982 79.42616 
L 356.572036 82.747671 
L 356.66009 79.917508 
L 356.836197 61.383869 
L 357.012305 81.037781 
L 357.100359 82.040131 
L 357.188413 78.404157 
L 357.276467 78.895505 
L 357.452574 80.841242 
L 357.540628 70.405015 
L 357.716736 81.882899 
L 357.80479 81.745322 
L 357.892843 80.88055 
L 357.980897 81.882899 
L 358.068951 78.581042 
L 358.157005 81.214666 
L 358.245059 79.819239 
L 358.333113 82.413555 
L 358.50922 78.659658 
L 358.685328 80.821588 
L 358.773382 80.114047 
L 358.861436 82.511825 
L 358.94949 78.463119 
L 359.213651 81.706014 
L 359.389759 78.679312 
L 359.477813 82.118746 
L 359.565867 78.187964 
L 359.741974 80.959165 
L 359.830028 80.684011 
L 359.918082 79.937162 
L 360.006136 80.33024 
L 360.09419 82.23667 
L 360.182244 75.121954 
L 360.270297 76.851498 
L 360.358351 82.433209 
L 360.446405 80.625049 
L 360.534459 81.509475 
L 360.622513 81.195012 
L 360.798621 78.581042 
L 360.886674 81.607745 
L 361.150836 79.485122 
L 361.326944 80.192663 
L 361.414998 80.173009 
L 361.503051 79.838893 
L 361.591105 80.153355 
L 361.679159 69.500935 
L 361.855267 83.062134 
L 362.119428 78.52208 
L 362.207482 80.78228 
L 362.295536 79.642353 
L 362.38359 81.607745 
L 362.471644 81.273628 
L 362.559698 79.347545 
L 362.735805 81.666706 
L 362.823859 79.17066 
L 362.911913 81.745322 
L 363.088021 78.325541 
L 363.176075 81.706014 
L 363.264128 79.544084 
L 363.352182 81.647052 
L 363.440236 78.797235 
L 363.52829 81.214666 
L 363.616344 79.583392 
L 363.704398 80.074739 
L 363.792451 79.544084 
L 363.880505 79.779931 
L 364.056613 80.742972 
L 364.144667 79.544084 
L 364.232721 81.666706 
L 364.320775 77.637654 
L 364.408828 81.489821 
L 364.496882 81.33259 
L 364.761044 80.074739 
L 364.849098 78.797235 
L 364.937152 81.902553 
L 365.025205 79.563738 
L 365.113259 82.020477 
L 365.201313 78.305887 
L 365.289367 79.367199 
L 365.377421 81.981169 
L 365.465475 79.681661 
L 365.553528 80.900204 
L 365.641582 78.089694 
L 365.81769 81.607745 
L 365.905744 79.249275 
L 365.993798 80.723319 
L 366.081852 80.192663 
L 366.169905 78.738273 
L 366.257959 82.295631 
L 366.434067 81.077089 
L 366.522121 83.180058 
L 366.610175 79.720969 
L 366.698229 80.526779 
L 366.786282 80.742972 
L 366.874336 82.59044 
L 367.050444 78.679312 
L 367.138498 81.489821 
L 367.226552 79.151006 
L 367.314605 81.018127 
L 367.402659 80.801934 
L 367.578767 79.249275 
L 367.754875 81.175359 
L 367.842929 80.251625 
L 367.930982 80.42851 
L 368.019036 81.529129 
L 368.195144 80.035432 
L 368.283198 81.450513 
L 368.547359 79.151006 
L 368.635413 81.607745 
L 368.723467 80.251625 
L 368.811521 80.310586 
L 368.899575 79.740623 
L 368.987629 81.391552 
L 369.075682 79.386853 
L 369.163736 80.074739 
L 369.25179 46.152088 
L 369.427898 81.568437 
L 369.692059 79.229621 
L 369.780113 80.33024 
L 369.868167 79.249275 
L 369.956221 81.568437 
L 370.044275 79.681661 
L 370.132329 79.779931 
L 370.220383 79.347545 
L 370.39649 81.195012 
L 370.660652 78.993774 
L 370.748706 82.59044 
L 370.836759 79.799585 
L 370.924813 81.430859 
L 371.012867 78.325541 
L 371.277029 82.551132 
L 371.453136 80.33024 
L 371.54119 79.485122 
L 371.629244 81.588091 
L 371.805352 79.17066 
L 371.893406 81.981169 
L 371.98146 79.779931 
L 372.157567 80.860896 
L 372.245621 79.583392 
L 372.333675 79.937162 
L 372.421729 79.406506 
L 372.509783 80.998473 
L 372.597836 80.978819 
L 372.68589 80.369548 
L 372.773944 80.78228 
L 372.861998 77.342846 
L 373.038106 81.23432 
L 373.12616 81.804284 
L 373.214213 78.97412 
L 373.302267 81.077089 
L 373.390321 80.78228 
L 373.478375 79.445814 
L 373.654483 81.823938 
L 373.742537 78.07004 
L 374.006698 82.275978 
L 374.182806 77.401807 
L 374.27086 82.177708 
L 374.358913 79.465468 
L 374.446967 79.779931 
L 374.535021 82.118746 
L 374.623075 79.386853 
L 374.799183 80.664357 
L 374.887237 80.566087 
L 375.063344 79.858546 
L 375.151398 81.647052 
L 375.327506 79.386853 
L 375.41556 82.177708 
L 375.503614 78.325541 
L 375.591667 82.728018 
L 375.679721 80.408856 
L 375.767775 81.725668 
L 375.855829 81.627398 
L 375.943883 82.177708 
L 376.031937 80.251625 
L 376.11999 81.68636 
L 376.208044 80.408856 
L 376.296098 82.177708 
L 376.472206 78.561388 
L 376.648314 81.411205 
L 376.824421 79.268929 
L 376.912475 80.860896 
L 377.000529 79.583392 
L 377.176637 81.057435 
L 377.264691 80.959165 
L 377.352744 78.305887 
L 377.440798 82.059785 
L 377.528852 79.740623 
L 377.616906 81.529129 
L 377.70496 79.97647 
L 377.793014 80.369548 
L 377.881067 79.308237 
L 377.969121 80.074739 
L 378.057175 81.843592 
L 378.145229 81.78463 
L 378.233283 75.986726 
L 378.321337 82.826287 
L 378.409391 79.563738 
L 378.497444 80.173009 
L 378.585498 81.018127 
L 378.673552 80.055086 
L 378.761606 81.352244 
L 378.84966 79.07239 
L 378.937714 81.981169 
L 379.113821 78.52208 
L 379.201875 81.725668 
L 379.289929 81.037781 
L 379.466037 79.897854 
L 379.554091 80.173009 
L 379.642144 82.334939 
L 379.730198 79.819239 
L 379.818252 82.492171 
L 379.99436 79.838893 
L 380.082414 82.433209 
L 380.170468 80.192663 
L 380.258521 82.177708 
L 380.346575 80.231971 
L 380.434629 81.273628 
L 380.610737 78.797235 
L 380.698791 82.767325 
L 380.874898 78.934813 
L 380.962952 81.450513 
L 381.051006 79.288583 
L 381.315168 82.020477 
L 381.403221 78.246926 
L 381.579329 81.764976 
L 381.843491 75.573994 
L 382.019598 79.52443 
L 382.107652 73.765834 
L 382.195706 60.440482 
L 382.28376 81.607745 
L 382.371814 78.875851 
L 382.459868 81.607745 
L 382.547922 80.33024 
L 382.635975 80.625049 
L 382.724029 81.175359 
L 382.900137 78.71862 
L 382.988191 81.352244 
L 383.076245 80.742972 
L 383.252352 80.035432 
L 383.340406 82.275978 
L 383.516514 78.934813 
L 383.692622 80.173009 
L 383.780675 81.529129 
L 384.044837 78.895505 
L 384.220945 82.334939 
L 384.308999 79.779931 
L 384.397052 80.192663 
L 384.485106 79.583392 
L 384.57316 81.981169 
L 384.661214 80.78228 
L 384.837322 81.843592 
L 384.925375 78.364849 
L 385.189537 81.666706 
L 385.277591 80.939512 
L 385.365645 78.443465 
L 385.453699 82.079438 
L 385.541752 79.701315 
L 385.629806 80.78228 
L 385.71786 79.07239 
L 385.805914 79.111698 
L 385.893968 79.249275 
L 385.982022 81.902553 
L 386.158129 79.445814 
L 386.246183 79.97647 
L 386.334237 79.603046 
L 386.598399 81.352244 
L 386.774506 78.364849 
L 386.950614 81.922207 
L 387.214776 79.485122 
L 387.390883 81.057435 
L 387.478937 69.697474 
L 387.566991 80.231971 
L 387.655045 78.482773 
L 387.743099 81.352244 
L 387.831153 80.585741 
L 387.919206 81.018127 
L 388.00726 79.97647 
L 388.095314 81.273628 
L 388.183368 78.62035 
L 388.271422 69.658166 
L 388.359476 82.295631 
L 388.447529 80.723319 
L 388.623637 79.642353 
L 388.711691 70.955324 
L 388.887799 80.566087 
L 388.975853 78.404157 
L 389.063906 82.472517 
L 389.15196 79.779931 
L 389.240014 83.750021 
L 389.416122 79.42616 
L 389.504176 79.701315 
L 389.59223 82.649402 
L 389.680283 78.600696 
L 389.768337 81.764976 
L 389.944445 68.989933 
L 390.032499 81.293282 
L 390.120553 80.153355 
L 390.208606 82.511825 
L 390.29666 78.089694 
L 390.472768 81.725668 
L 390.560822 80.841242 
L 390.648876 69.854705 
L 390.73693 79.956816 
L 390.824983 79.367199 
L 390.913037 81.489821 
L 391.001091 78.915159 
L 391.089145 81.706014 
L 391.177199 78.640004 
L 391.353307 81.981169 
L 391.44136 79.445814 
L 391.617468 81.548783 
L 391.705522 79.131352 
L 391.88163 81.509475 
L 391.969684 80.88055 
L 392.145791 79.504776 
L 392.233845 81.882899 
L 392.321899 79.563738 
L 392.409953 81.745322 
L 392.498007 79.17066 
L 392.58606 80.094393 
L 392.762168 79.013428 
L 392.850222 78.895505 
L 392.938276 81.764976 
L 393.02633 77.952117 
L 393.114384 82.217016 
L 393.202437 79.52443 
L 393.290491 80.742972 
L 393.466599 79.229621 
L 393.554653 79.760277 
L 393.642707 79.603046 
L 393.818814 82.000823 
L 393.906868 80.467818 
L 393.994922 82.295631 
L 394.259084 70.522938 
L 394.435191 80.723319 
L 394.523245 79.386853 
L 394.611299 81.666706 
L 394.699353 79.406506 
L 394.787407 79.760277 
L 394.875461 82.629748 
L 395.051568 78.757927 
L 395.139622 82.511825 
L 395.227676 68.616509 
L 395.31573 68.970279 
L 395.491838 81.627398 
L 395.667945 77.952117 
L 395.755999 81.371898 
L 395.844053 70.090552 
L 396.020161 82.217016 
L 396.108214 75.593648 
L 396.284322 81.136051 
L 396.372376 80.664357 
L 396.46043 81.175359 
L 396.548484 78.52208 
L 396.636538 82.059785 
L 396.724591 69.32405 
L 396.900699 80.801934 
L 397.076807 79.701315 
L 397.164861 68.989933 
L 397.252915 80.801934 
L 397.340968 80.605395 
L 397.429022 79.111698 
L 397.517076 83.297981 
L 397.693184 79.681661 
L 397.781238 83.49452 
L 397.957345 79.17066 
L 398.133453 81.470167 
L 398.309561 79.268929 
L 398.397615 81.253974 
L 398.573722 80.349894 
L 398.661776 54.269153 
L 398.837884 79.209967 
L 398.925938 79.209967 
L 399.013992 81.273628 
L 399.190099 78.561388 
L 399.278153 81.352244 
L 399.366207 80.860896 
L 399.454261 80.664357 
L 399.542315 81.037781 
L 399.718422 77.480423 
L 399.806476 80.408856 
L 399.89453 80.33024 
L 400.158692 79.249275 
L 400.334799 79.720969 
L 400.422853 72.114905 
L 400.510907 82.1384 
L 400.598961 76.143957 
L 400.775069 80.762626 
L 400.863122 80.723319 
L 400.951176 80.487472 
L 401.03923 78.640004 
L 401.127284 71.466326 
L 401.303392 81.116397 
L 401.391445 81.136051 
L 401.479499 75.967072 
L 401.567553 81.33259 
L 401.655607 71.289441 
L 401.743661 80.290932 
L 401.831715 79.229621 
L 401.919769 79.740623 
L 402.095876 81.116397 
L 402.18393 80.408856 
L 402.271984 81.450513 
L 402.360038 77.853847 
L 402.448092 82.708364 
L 402.536146 80.035432 
L 402.624199 81.116397 
L 402.888361 79.662007 
L 403.152522 81.568437 
L 403.32863 79.681661 
L 403.416684 82.924557 
L 403.592792 79.701315 
L 403.680846 79.720969 
L 403.768899 72.134559 
L 403.945007 80.978819 
L 404.033061 80.585741 
L 404.121115 79.17066 
L 404.209169 79.662007 
L 404.297223 82.059785 
L 404.385276 79.406506 
L 404.47333 80.841242 
L 404.561384 79.583392 
L 404.649438 81.273628 
L 404.737492 79.052736 
L 404.825546 82.413555 
L 404.913599 80.251625 
L 405.001653 67.044196 
L 405.177761 80.978819 
L 405.265815 82.020477 
L 405.353869 78.207618 
L 405.441923 81.489821 
L 405.529976 80.625049 
L 405.61803 80.684011 
L 405.706084 80.684011 
L 405.794138 81.78463 
L 405.882192 78.679312 
L 406.146353 81.647052 
L 406.234407 80.015778 
L 406.322461 81.568437 
L 406.410515 79.052736 
L 406.498569 79.209967 
L 406.586623 81.037781 
L 406.674676 80.369548 
L 406.76273 81.666706 
L 406.850784 78.777581 
L 407.026892 82.904903 
L 407.203 79.465468 
L 407.291053 74.296489 
L 407.379107 59.811556 
L 407.467161 81.529129 
L 407.555215 79.151006 
L 407.643269 80.42851 
L 407.731323 78.679312 
L 407.819377 81.411205 
L 407.90743 80.566087 
L 407.995484 80.801934 
L 408.083538 79.603046 
L 408.171592 80.271279 
L 408.259646 78.698966 
L 408.435753 82.118746 
L 408.523807 81.411205 
L 408.611861 77.971771 
L 408.699915 79.092044 
L 408.787969 81.68636 
L 408.876023 79.111698 
L 408.876023 79.111698 
" clip-path="url(#p3e53ee52c1)" style="fill: none; stroke: #1f77b4; stroke-width: 1.5; stroke-linecap: square"/>
   </g>
   <g id="patch_3">
    <path d="M 67.98875 273.312 
L 67.98875 7.2 
" style="fill: none; stroke: #000000; stroke-width: 0.8; stroke-linejoin: miter; stroke-linecap: square"/>
   </g>
   <g id="patch_4">
    <path d="M 425.10875 273.312 
L 425.10875 7.2 
" style="fill: none; stroke: #000000; stroke-width: 0.8; stroke-linejoin: miter; stroke-linecap: square"/>
   </g>
   <g id="patch_5">
    <path d="M 67.98875 273.312 
L 425.10875 273.312 
" style="fill: none; stroke: #000000; stroke-width: 0.8; stroke-linejoin: miter; stroke-linecap: square"/>
   </g>
   <g id="patch_6">
    <path d="M 67.98875 7.2 
L 425.10875 7.2 
" style="fill: none; stroke: #000000; stroke-width: 0.8; stroke-linejoin: miter; stroke-linecap: square"/>
   </g>
  </g>
 </g>
 <defs>
  <clipPath id="p3e53ee52c1">
   <rect x="67.98875" y="7.2" width="357.12" height="266.112"/>
  </clipPath>
 </defs>
</svg>
